{
.appVersion = "3343";
.formatVersion = 3;
axes = (
{
name = Stretch;
tag = STCH;
}
);
date = "2024-03-01 04:32:56 +0000";
familyName = "Spring Script";
fontMaster = (
{
axesValues = (
0
);
id = m01;
metricValues = (
{
over = 16;
pos = 800;
},
{
over = 16;
pos = 700;
},
{
over = 16;
pos = 300;
},
{
over = -16;
},
{
over = -16;
pos = -200;
}
);
name = Regular;
},
{
axesValues = (
50
);
id = "FF452C49-E890-4906-B4E4-D49F40911E04";
metricValues = (
{
over = 16;
pos = 800;
},
{
over = 16;
pos = 700;
},
{
over = 16;
pos = 300;
},
{
over = -16;
},
{
over = -16;
pos = -200;
}
);
name = Regular;
},
{
axesValues = (
100
);
id = "083202A8-D484-4071-ADF3-F9529F9E0EF2";
metricValues = (
{
over = 16;
pos = 800;
},
{
over = 16;
pos = 700;
},
{
over = 16;
pos = 300;
},
{
over = -16;
},
{
over = -16;
pos = -200;
}
);
name = Regular;
}
);
glyphs = (
{
glyphname = A;
lastChange = "2024-03-08 04:20:50 +0000";
layers = (
{
layerId = m01;
shapes = (
{
attr = {
strokeWidth = 20;
};
closed = 0;
nodes = (
(0,0,l),
(50,0,l),
(100,50,l),
(150,100,l),
(200,150,l),
(250,200,l),
(300,300,l),
(350,400,l),
(400,500,l),
(450,600,l),
(500,700,l),
(500,600,l),
(500,500,l),
(500,400,l),
(500,300,l),
(500,200,l),
(500,100,l),
(500,0,l),
(500,100,l),
(450,200,l),
(400,300,l),
(350,350,l),
(300,400,l),
(250,450,l),
(200,500,l),
(150,500,l),
(100,450,l),
(100,350,l),
(150,250,l),
(450,300,l),
(500,300,l),
(550,300,l),
(600,250,l)
);
}
);
width = 600;
},
{
layerId = "083202A8-D484-4071-ADF3-F9529F9E0EF2";
shapes = (
{
attr = {
strokeWidth = 20;
};
closed = 0;
nodes = (
(0,0,l),
(300,0,l),
(500,50,l),
(700,100,l),
(900,150,l),
(1100,200,l),
(1300,300,l),
(1500,400,l),
(1700,500,l),
(1900,600,l),
(2100,700,l),
(2100,600,l),
(2100,500,l),
(2100,400,l),
(2100,300,l),
(2100,200,l),
(2100,100,l),
(2100,0,l),
(2100,100,l),
(1900,200,l),
(1700,300,l),
(1500,350,l),
(1300,400,l),
(1100,450,l),
(900,500,l),
(500,500,l),
(400,450,l),
(400,350,l),
(500,250,l),
(1900,300,l),
(2200,300,l),
(2300,300,l),
(2400,250,l)
);
}
);
width = 2400;
},
{
layerId = "FF452C49-E890-4906-B4E4-D49F40911E04";
shapes = (
{
attr = {
strokeWidth = 20;
};
closed = 0;
nodes = (
(0,0,l),
(100,0,l),
(200,50,l),
(300,100,l),
(400,150,l),
(500,200,l),
(600,300,l),
(700,400,l),
(800,500,l),
(900,600,l),
(1000,700,l),
(1000,600,l),
(1000,500,l),
(1000,400,l),
(1000,300,l),
(1000,200,l),
(1000,100,l),
(1000,0,l),
(1000,100,l),
(900,200,l),
(800,300,l),
(700,350,l),
(600,400,l),
(500,450,l),
(400,500,l),
(300,500,l),
(200,450,l),
(200,350,l),
(300,250,l),
(900,300,l),
(1000,300,l),
(1100,300,l),
(1200,250,l)
);
}
);
width = 1200;
}
);
unicode = 65;
},
{
glyphname = B;
lastChange = "2024-03-08 04:40:54 +0000";
layers = (
{
layerId = m01;
shapes = (
{
attr = {
strokeWidth = 20;
};
closed = 0;
nodes = (
(0,103,l),
(100,0,l),
(150,0,l),
(500,700,l),
(550,700,l),
(600,600,l),
(600,400,l),
(550,300,l),
(300,300,l),
(550,300,l),
(600,200,l),
(600,100,l),
(550,0,l),
(250,0,l),
(150,200,l),
(150,400,l),
(200,500,l)
);
}
);
width = 600;
},
{
layerId = "083202A8-D484-4071-ADF3-F9529F9E0EF2";
shapes = (
{
attr = {
strokeWidth = 20;
};
closed = 0;
nodes = (
(0,103,l),
(200,0,l),
(300,0,l),
(1000,700,l),
(2300,700,l),
(2400,600,l),
(2400,400,l),
(2200,300,l),
(600,300,l),
(2300,300,l),
(2400,200,l),
(2400,100,l),
(2300,0,l),
(500,0,l),
(300,200,l),
(300,400,l),
(400,500,l)
);
}
);
width = 2400;
},
{
layerId = "FF452C49-E890-4906-B4E4-D49F40911E04";
shapes = (
{
attr = {
strokeWidth = 20;
};
closed = 0;
nodes = (
(0,103,l),
(200,0,l),
(300,0,l),
(1000,700,l),
(1100,700,l),
(1200,600,l),
(1200,400,l),
(1100,300,l),
(600,300,l),
(1100,300,l),
(1200,200,l),
(1200,100,l),
(1100,0,l),
(500,0,l),
(300,200,l),
(300,400,l),
(400,500,l)
);
}
);
width = 1200;
}
);
unicode = 66;
},
{
glyphname = C;
lastChange = "2024-03-08 04:53:32 +0000";
layers = (
{
layerId = m01;
shapes = (
{
attr = {
strokeWidth = 20;
};
closed = 0;
nodes = (
(350,300,l),
(300,200,l),
(250,100,l),
(200,0,l),
(150,0,l),
(100,0,l),
(0,92,l)
);
},
{
attr = {
strokeWidth = 20;
};
closed = 0;
nodes = (
(550,100,l),
(500,50,l),
(450,0,l),
(250,0,l),
(200,200,l),
(200,300,l),
(200,400,l),
(250,500,l),
(300,600,l),
(350,650,l),
(400,700,l),
(450,700,l),
(500,700,l),
(600,700,l),
(625,600,l),
(650,500,l)
);
}
);
width = 650;
},
{
layerId = "083202A8-D484-4071-ADF3-F9529F9E0EF2";
shapes = (
{
attr = {
strokeWidth = 20;
};
closed = 0;
nodes = (
(700,300,l),
(600,200,l),
(500,100,l),
(400,0,l),
(300,0,l),
(200,0,l),
(0,92,l)
);
},
{
attr = {
strokeWidth = 20;
};
closed = 0;
nodes = (
(2400,100,l),
(2300,50,l),
(2200,0,l),
(500,0,l),
(400,200,l),
(400,300,l),
(400,400,l),
(500,500,l),
(600,600,l),
(700,650,l),
(800,700,l),
(900,700,l),
(1000,700,l),
(2500,700,l),
(2550,600,l),
(2600,500,l)
);
}
);
width = 2600;
},
{
layerId = "FF452C49-E890-4906-B4E4-D49F40911E04";
shapes = (
{
attr = {
strokeWidth = 20;
};
closed = 0;
nodes = (
(700,300,l),
(600,200,l),
(500,100,l),
(400,0,l),
(300,0,l),
(200,0,l),
(0,92,l)
);
},
{
attr = {
strokeWidth = 20;
};
closed = 0;
nodes = (
(1100,100,l),
(1000,50,l),
(900,0,l),
(500,0,l),
(400,200,l),
(400,300,l),
(400,400,l),
(500,500,l),
(600,600,l),
(700,650,l),
(800,700,l),
(900,700,l),
(1000,700,l),
(1200,700,l),
(1250,600,l),
(1300,500,l)
);
}
);
width = 1300;
}
);
unicode = 67;
},
{
glyphname = D;
lastChange = "2024-03-08 04:56:38 +0000";
layers = (
{
layerId = m01;
shapes = (
{
attr = {
strokeWidth = 20;
};
closed = 0;
nodes = (
(0,92,l),
(100,0,l),
(150,0,l),
(200,0,l),
(250,100,l),
(300,200,l),
(550,700,l)
);
},
{
attr = {
strokeWidth = 20;
};
closed = 0;
nodes = (
(300,600,l),
(350,650,l),
(400,700,l),
(450,700,l),
(500,700,l),
(600,700,l),
(625,600,l),
(650,500,l),
(650,400,l),
(650,300,l),
(600,200,l),
(550,100,l),
(500,50,l),
(450,0,l),
(250,0,l),
(200,200,l),
(200,300,l),
(200,400,l)
);
}
);
width = 650;
},
{
layerId = "083202A8-D484-4071-ADF3-F9529F9E0EF2";
shapes = (
{
attr = {
strokeWidth = 20;
};
closed = 0;
nodes = (
(0,92,l),
(200,0,l),
(300,0,l),
(400,0,l),
(500,100,l),
(600,200,l),
(1100,700,l)
);
},
{
attr = {
strokeWidth = 20;
};
closed = 0;
nodes = (
(600,600,l),
(700,650,l),
(800,700,l),
(900,700,l),
(1000,700,l),
(2500,700,l),
(2550,600,l),
(2600,500,l),
(2600,400,l),
(2600,300,l),
(2500,200,l),
(2400,100,l),
(2300,50,l),
(2200,0,l),
(500,0,l),
(400,200,l),
(400,300,l),
(400,400,l)
);
}
);
width = 2600;
},
{
layerId = "FF452C49-E890-4906-B4E4-D49F40911E04";
shapes = (
{
attr = {
strokeWidth = 20;
};
closed = 0;
nodes = (
(0,92,l),
(200,0,l),
(300,0,l),
(400,0,l),
(500,100,l),
(600,200,l),
(1100,700,l)
);
},
{
attr = {
strokeWidth = 20;
};
closed = 0;
nodes = (
(600,600,l),
(700,650,l),
(800,700,l),
(900,700,l),
(1000,700,l),
(1200,700,l),
(1250,600,l),
(1300,500,l),
(1300,400,l),
(1300,300,l),
(1200,200,l),
(1100,100,l),
(1000,50,l),
(900,0,l),
(500,0,l),
(400,200,l),
(400,300,l),
(400,400,l)
);
}
);
width = 1300;
}
);
unicode = 68;
},
{
glyphname = E;
lastChange = "2024-03-08 05:01:19 +0000";
layers = (
{
layerId = m01;
shapes = (
{
attr = {
strokeWidth = 20;
};
closed = 0;
nodes = (
(325,500,l),
(225,500,l),
(100,500,l),
(0,700,l)
);
},
{
attr = {
strokeWidth = 20;
};
closed = 0;
nodes = (
(550,600,l),
(525,700,l),
(425,700,l),
(375,700,l),
(275,600,l),
(275,400,l)
);
},
{
attr = {
strokeWidth = 20;
};
closed = 0;
nodes = (
(475,100,l),
(425,50,l),
(375,0,l),
(125,0,l),
(75,100,l),
(75,300,l),
(125,400,l),
(275,400,l),
(375,300,l),
(425,300,l)
);
}
);
width = 550;
},
{
layerId = "083202A8-D484-4071-ADF3-F9529F9E0EF2";
shapes = (
{
attr = {
strokeWidth = 20;
};
closed = 0;
nodes = (
(650,500,l),
(450,500,l),
(200,500,l),
(0,700,l)
);
},
{
attr = {
strokeWidth = 20;
};
closed = 0;
nodes = (
(2200,600,l),
(2150,700,l),
(850,700,l),
(750,700,l),
(550,600,l),
(550,400,l)
);
},
{
attr = {
strokeWidth = 20;
};
closed = 0;
nodes = (
(2050,100,l),
(1950,50,l),
(1850,0,l),
(250,0,l),
(150,100,l),
(150,300,l),
(250,400,l),
(550,400,l),
(750,300,l),
(1950,300,l)
);
}
);
width = 2200;
},
{
layerId = "FF452C49-E890-4906-B4E4-D49F40911E04";
shapes = (
{
attr = {
strokeWidth = 20;
};
closed = 0;
nodes = (
(650,500,l),
(450,500,l),
(200,500,l),
(0,700,l)
);
},
{
attr = {
strokeWidth = 20;
};
closed = 0;
nodes = (
(1100,600,l),
(1050,700,l),
(850,700,l),
(750,700,l),
(550,600,l),
(550,400,l)
);
},
{
attr = {
strokeWidth = 20;
};
closed = 0;
nodes = (
(950,100,l),
(850,50,l),
(750,0,l),
(250,0,l),
(150,100,l),
(150,300,l),
(250,400,l),
(550,400,l),
(750,300,l),
(850,300,l)
);
}
);
width = 1100;
}
);
unicode = 69;
},
{
glyphname = F;
lastChange = "2024-03-01 21:20:50 +0000";
layers = (
{
layerId = m01;
shapes = (
{
attr = {
strokeWidth = 20;
};
closed = 0;
nodes = (
(500,300,l),
(400,300,l),
(300,500,l)
);
},
{
attr = {
strokeWidth = 20;
};
closed = 0;
nodes = (
(400,700,l),
(400,500,l),
(150,0,l),
(100,0,l),
(0,92,l)
);
},
{
attr = {
strokeWidth = 20;
};
closed = 0;
nodes = (
(250,200,l),
(150,400,l),
(150,600,l),
(250,700,l),
(600,700,l),
(625,600,l)
);
}
);
width = 625;
},
{
layerId = "083202A8-D484-4071-ADF3-F9529F9E0EF2";
shapes = (
{
attr = {
strokeWidth = 20;
};
closed = 0;
nodes = (
(1650,300,l),
(800,300,l),
(600,500,l)
);
},
{
attr = {
strokeWidth = 20;
};
closed = 0;
nodes = (
(800,700,l),
(800,500,l),
(300,0,l),
(200,0,l),
(0,92,l)
);
},
{
attr = {
strokeWidth = 20;
};
closed = 0;
nodes = (
(500,200,l),
(300,400,l),
(300,600,l),
(500,700,l),
(2450,700,l),
(2500,600,l)
);
}
);
width = 2500;
},
{
layerId = "FF452C49-E890-4906-B4E4-D49F40911E04";
shapes = (
{
attr = {
strokeWidth = 20;
};
closed = 0;
nodes = (
(1000,300,l),
(800,300,l),
(600,500,l)
);
},
{
attr = {
strokeWidth = 20;
};
closed = 0;
nodes = (
(800,700,l),
(800,500,l),
(300,0,l),
(200,0,l),
(0,92,l)
);
},
{
attr = {
strokeWidth = 20;
};
closed = 0;
nodes = (
(500,200,l),
(300,400,l),
(300,600,l),
(500,700,l),
(1200,700,l),
(1250,600,l)
);
}
);
width = 1250;
}
);
unicode = 70;
},
{
glyphname = G;
lastChange = "2024-03-08 05:09:23 +0000";
layers = (
{
layerId = m01;
shapes = (
{
attr = {
strokeWidth = 20;
};
closed = 0;
nodes = (
(350,300,l),
(300,200,l),
(250,100,l),
(200,0,l),
(150,0,l),
(100,0,l),
(0,92,l)
);
},
{
attr = {
strokeWidth = 20;
};
closed = 0;
nodes = (
(550,0,l),
(550,200,l),
(600,300,l),
(550,200,l),
(450,0,l),
(250,0,l),
(200,200,l),
(200,300,l),
(200,400,l),
(250,500,l),
(300,600,l),
(350,650,l),
(400,700,l),
(450,700,l),
(500,700,l),
(600,700,l),
(625,600,l),
(650,500,l)
);
}
);
width = 650;
},
{
layerId = "083202A8-D484-4071-ADF3-F9529F9E0EF2";
shapes = (
{
attr = {
strokeWidth = 20;
};
closed = 0;
nodes = (
(700,300,l),
(600,200,l),
(500,100,l),
(400,0,l),
(300,0,l),
(200,0,l),
(0,92,l)
);
},
{
attr = {
strokeWidth = 20;
};
closed = 0;
nodes = (
(2200,0,l),
(2200,200,l),
(2300,300,l),
(2200,200,l),
(2000,0,l),
(500,0,l),
(400,200,l),
(400,300,l),
(400,400,l),
(500,500,l),
(600,600,l),
(700,650,l),
(800,700,l),
(900,700,l),
(1000,700,l),
(2300,700,l),
(2350,600,l),
(2400,500,l)
);
}
);
width = 2400;
},
{
layerId = "FF452C49-E890-4906-B4E4-D49F40911E04";
shapes = (
{
attr = {
strokeWidth = 20;
};
closed = 0;
nodes = (
(700,300,l),
(600,200,l),
(500,100,l),
(400,0,l),
(300,0,l),
(200,0,l),
(0,92,l)
);
},
{
attr = {
strokeWidth = 20;
};
closed = 0;
nodes = (
(1100,0,l),
(1100,200,l),
(1200,300,l),
(1100,200,l),
(900,0,l),
(500,0,l),
(400,200,l),
(400,300,l),
(400,400,l),
(500,500,l),
(600,600,l),
(700,650,l),
(800,700,l),
(900,700,l),
(1000,700,l),
(1200,700,l),
(1250,600,l),
(1300,500,l)
);
}
);
width = 1300;
}
);
unicode = 71;
},
{
glyphname = H;
lastChange = "2024-03-08 05:14:42 +0000";
layers = (
{
layerId = m01;
shapes = (
{
attr = {
strokeWidth = 20;
};
closed = 0;
nodes = (
(0,100,l),
(100,0,l),
(200,0,l),
(450,500,l),
(450,700,l),
(300,700,l),
(250,650,l),
(200,550,l)
);
},
{
attr = {
strokeWidth = 20;
};
closed = 0;
nodes = (
(650,700,l),
(650,500,l),
(400,0,l)
);
},
{
attr = {
strokeWidth = 20;
};
closed = 0;
nodes = (
(200,350,l),
(250,300,l),
(550,300,l)
);
}
);
width = 650;
},
{
layerId = "083202A8-D484-4071-ADF3-F9529F9E0EF2";
shapes = (
{
attr = {
strokeWidth = 20;
};
closed = 0;
nodes = (
(0,100,l),
(200,0,l),
(400,0,l),
(900,500,l),
(900,700,l),
(600,700,l),
(500,650,l),
(400,550,l)
);
},
{
attr = {
strokeWidth = 20;
};
closed = 0;
nodes = (
(2600,700,l),
(2600,500,l),
(2100,0,l)
);
},
{
attr = {
strokeWidth = 20;
};
closed = 0;
nodes = (
(400,350,l),
(500,300,l),
(2400,300,l)
);
}
);
width = 2600;
},
{
layerId = "FF452C49-E890-4906-B4E4-D49F40911E04";
shapes = (
{
attr = {
strokeWidth = 20;
};
closed = 0;
nodes = (
(0,100,l),
(200,0,l),
(400,0,l),
(900,500,l),
(900,700,l),
(600,700,l),
(500,650,l),
(400,550,l)
);
},
{
attr = {
strokeWidth = 20;
};
closed = 0;
nodes = (
(1300,700,l),
(1300,500,l),
(800,0,l)
);
},
{
attr = {
strokeWidth = 20;
};
closed = 0;
nodes = (
(400,350,l),
(500,300,l),
(1100,300,l)
);
}
);
width = 1300;
}
);
unicode = 72;
},
{
glyphname = I;
lastChange = "2024-03-08 05:30:12 +0000";
layers = (
{
layerId = m01;
shapes = (
{
attr = {
strokeWidth = 20;
};
closed = 0;
nodes = (
(0,100,l),
(100,0,l),
(200,0,l),
(450,500,l),
(450,700,l),
(300,700,l),
(250,650,l),
(200,550,l)
);
},
{
attr = {
strokeWidth = 20;
};
closed = 0;
nodes = (
(450,700,l),
(600,700,l)
);
},
{
attr = {
strokeWidth = 20;
};
closed = 0;
nodes = (
(200,0,l),
(400,0,l)
);
}
);
width = 600;
},
{
layerId = "083202A8-D484-4071-ADF3-F9529F9E0EF2";
shapes = (
{
attr = {
strokeWidth = 20;
};
closed = 0;
nodes = (
(0,100,l),
(200,0,l),
(1000,0,l),
(1500,500,l),
(1500,700,l),
(600,700,l),
(500,650,l),
(400,550,l)
);
},
{
attr = {
strokeWidth = 20;
};
closed = 0;
nodes = (
(1500,700,l),
(2400,700,l)
);
},
{
attr = {
strokeWidth = 20;
};
closed = 0;
nodes = (
(1000,0,l),
(2000,0,l)
);
}
);
width = 2400;
},
{
layerId = "FF452C49-E890-4906-B4E4-D49F40911E04";
shapes = (
{
attr = {
strokeWidth = 20;
};
closed = 0;
nodes = (
(0,100,l),
(200,0,l),
(400,0,l),
(900,500,l),
(900,700,l),
(600,700,l),
(500,650,l),
(400,550,l)
);
},
{
attr = {
strokeWidth = 20;
};
closed = 0;
nodes = (
(900,700,l),
(1200,700,l)
);
},
{
attr = {
strokeWidth = 20;
};
closed = 0;
nodes = (
(400,0,l),
(800,0,l)
);
}
);
width = 1200;
}
);
unicode = 73;
},
{
glyphname = J;
lastChange = "2024-03-08 05:43:20 +0000";
layers = (
{
layerId = m01;
shapes = (
{
attr = {
strokeWidth = 20;
};
closed = 0;
nodes = (
(550,700,l),
(200,0,l),
(50,0,l),
(0,100,l),
(0,300,l),
(50,400,l),
(250,400,l),
(350,0,l),
(450,0,l),
(600,300,l)
);
},
{
attr = {
strokeWidth = 20;
};
closed = 0;
nodes = (
(250,700,l),
(600,700,l)
);
}
);
width = 600;
},
{
layerId = "083202A8-D484-4071-ADF3-F9529F9E0EF2";
shapes = (
{
attr = {
strokeWidth = 20;
};
closed = 0;
nodes = (
(2300,700,l),
(1600,0,l),
(100,0,l),
(0,100,l),
(1,300,l),
(100,400,l),
(1700,400,l),
(1900,0,l),
(2100,0,l),
(2400,300,l)
);
},
{
attr = {
strokeWidth = 20;
};
closed = 0;
nodes = (
(1000,700,l),
(2400,700,l)
);
}
);
width = 2400;
},
{
layerId = "FF452C49-E890-4906-B4E4-D49F40911E04";
shapes = (
{
attr = {
strokeWidth = 20;
};
closed = 0;
nodes = (
(1100,700,l),
(400,0,l),
(100,0,l),
(0,100,l),
(0,300,l),
(100,400,l),
(500,400,l),
(700,0,l),
(900,0,l),
(1200,300,l)
);
},
{
attr = {
strokeWidth = 20;
};
closed = 0;
nodes = (
(500,700,l),
(1200,700,l)
);
}
);
width = 1200;
}
);
unicode = 74;
},
{
glyphname = K;
lastChange = "2024-03-08 05:59:41 +0000";
layers = (
{
layerId = m01;
shapes = (
{
attr = {
strokeWidth = 20;
};
closed = 0;
nodes = (
(0,0,l),
(150,0,l),
(400,500,l),
(400,700,l),
(250,700,l),
(200,650,l),
(150,550,l)
);
},
{
attr = {
strokeWidth = 20;
};
closed = 0;
nodes = (
(600,700,l),
(600,500,l),
(400,300,l),
(300,300,l),
(250,400,l)
);
},
{
attr = {
strokeWidth = 20;
};
closed = 0;
nodes = (
(300,300,l),
(450,0,l),
(550,0,l),
(600,100,l)
);
}
);
width = 600;
},
{
layerId = "083202A8-D484-4071-ADF3-F9529F9E0EF2";
shapes = (
{
attr = {
strokeWidth = 20;
};
closed = 0;
nodes = (
(0,0,l),
(300,0,l),
(800,500,l),
(800,700,l),
(500,700,l),
(400,650,l),
(300,550,l)
);
},
{
attr = {
strokeWidth = 20;
};
closed = 0;
nodes = (
(2400,700,l),
(2400,500,l),
(1100,300,l),
(600,300,l),
(400,400,l)
);
},
{
attr = {
strokeWidth = 20;
};
closed = 0;
nodes = (
(600,300,l),
(1200,0,l),
(2300,0,l),
(2400,100,l)
);
}
);
width = 2400;
},
{
layerId = "FF452C49-E890-4906-B4E4-D49F40911E04";
shapes = (
{
attr = {
strokeWidth = 20;
};
closed = 0;
nodes = (
(0,0,l),
(300,0,l),
(800,500,l),
(800,700,l),
(500,700,l),
(400,650,l),
(300,550,l)
);
},
{
attr = {
strokeWidth = 20;
};
closed = 0;
nodes = (
(1200,700,l),
(1200,500,l),
(800,300,l),
(600,300,l),
(500,400,l)
);
},
{
attr = {
strokeWidth = 20;
};
closed = 0;
nodes = (
(600,300,l),
(900,0,l),
(1100,0,l),
(1200,100,l)
);
}
);
width = 1200;
}
);
unicode = 75;
},
{
glyphname = L;
lastChange = "2024-03-08 06:08:12 +0000";
layers = (
{
layerId = m01;
shapes = (
{
attr = {
strokeWidth = 20;
};
closed = 0;
nodes = (
(500,700,l),
(450,700,l),
(150,0,l),
(50,0,l),
(0,112,l),
(0,300,l),
(50,400,l),
(150,400,l),
(350,0,l),
(550,0,l),
(600,100,l)
);
}
);
width = 600;
},
{
layerId = "083202A8-D484-4071-ADF3-F9529F9E0EF2";
shapes = (
{
attr = {
strokeWidth = 20;
};
closed = 0;
nodes = (
(1000,700,l),
(900,700,l),
(300,0,l),
(100,0,l),
(0,112,l),
(0,300,l),
(100,400,l),
(300,400,l),
(700,0,l),
(2300,0,l),
(2400,100,l)
);
}
);
width = 2400;
},
{
layerId = "FF452C49-E890-4906-B4E4-D49F40911E04";
shapes = (
{
attr = {
strokeWidth = 20;
};
closed = 0;
nodes = (
(1000,700,l),
(900,700,l),
(300,0,l),
(100,0,l),
(0,112,l),
(0,300,l),
(100,400,l),
(300,400,l),
(700,0,l),
(1100,0,l),
(1200,100,l)
);
}
);
width = 1200;
}
);
unicode = 76;
},
{
glyphname = M;
lastChange = "2024-03-01 21:08:06 +0000";
layers = (
{
layerId = m01;
shapes = (
{
attr = {
strokeWidth = 20;
};
closed = 0;
nodes = (
(735,100,l),
(685,0,l),
(585,0,l),
(535,50,l),
(535,150,l),
(735,550,l),
(710,650,l),
(660,700,l),
(610,700,l),
(360,200,l),
(610,700,l),
(535,550,l),
(510,650,l),
(460,700,l),
(410,700,l),
(60,0,l),
(10,0,l)
);
}
);
width = 725;
},
{
layerId = "083202A8-D484-4071-ADF3-F9529F9E0EF2";
shapes = (
{
attr = {
strokeWidth = 20;
};
closed = 0;
nodes = (
(2950,100,l),
(2850,0,l),
(2650,0,l),
(2550,50,l),
(2550,150,l),
(2950,550,l),
(2900,650,l),
(2800,700,l),
(1950,700,l),
(1450,200,l),
(1950,700,l),
(1800,550,l),
(1750,650,l),
(1650,700,l),
(800,700,l),
(100,0,l),
(0,0,l)
);
}
);
width = 2950;
},
{
layerId = "FF452C49-E890-4906-B4E4-D49F40911E04";
shapes = (
{
attr = {
strokeWidth = 20;
};
closed = 0;
nodes = (
(1450,100,l),
(1350,0,l),
(1150,0,l),
(1050,50,l),
(1050,150,l),
(1450,550,l),
(1400,650,l),
(1300,700,l),
(1200,700,l),
(700,200,l),
(1200,700,l),
(1050,550,l),
(1000,650,l),
(900,700,l),
(800,700,l),
(100,0,l),
(0,0,l)
);
}
);
width = 1450;
}
);
unicode = 77;
},
{
glyphname = N;
lastChange = "2024-03-08 06:17:53 +0000";
layers = (
{
layerId = m01;
shapes = (
{
attr = {
strokeWidth = 20;
};
closed = 0;
nodes = (
(350,0,l),
(700,700,l)
);
},
{
attr = {
strokeWidth = 20;
};
closed = 0;
nodes = (
(400,700,l),
(400,100,l)
);
},
{
attr = {
strokeWidth = 20;
};
closed = 0;
nodes = (
(0,0,l),
(50,0,l),
(400,700,l)
);
}
);
width = 700;
},
{
layerId = "083202A8-D484-4071-ADF3-F9529F9E0EF2";
shapes = (
{
attr = {
strokeWidth = 20;
};
closed = 0;
nodes = (
(2100,0,l),
(2800,700,l)
);
},
{
attr = {
strokeWidth = 20;
};
closed = 0;
nodes = (
(800,700,l),
(2200,100,l)
);
},
{
attr = {
strokeWidth = 20;
};
closed = 0;
nodes = (
(0,0,l),
(100,0,l),
(800,700,l)
);
}
);
width = 2800;
},
{
layerId = "FF452C49-E890-4906-B4E4-D49F40911E04";
shapes = (
{
attr = {
strokeWidth = 20;
};
closed = 0;
nodes = (
(700,0,l),
(1400,700,l)
);
},
{
attr = {
strokeWidth = 20;
};
closed = 0;
nodes = (
(800,700,l),
(800,100,l)
);
},
{
attr = {
strokeWidth = 20;
};
closed = 0;
nodes = (
(0,0,l),
(100,0,l),
(800,700,l)
);
}
);
width = 1400;
}
);
unicode = 78;
},
{
glyphname = O;
lastChange = "2024-03-08 06:20:07 +0000";
layers = (
{
layerId = m01;
shapes = (
{
attr = {
strokeWidth = 20;
};
closed = 1;
nodes = (
(250,0,l),
(300,50,l),
(350,100,l),
(400,200,l),
(450,300,l),
(450,400,l),
(450,500,l),
(425,600,l),
(400,700,l),
(300,700,l),
(250,700,l),
(200,700,l),
(150,650,l),
(100,600,l),
(50,500,l),
(0,400,l),
(0,300,l),
(0,200,l),
(50,0,l)
);
},
{
attr = {
strokeWidth = 20;
};
closed = 0;
nodes = (
(300,500,l),
(400,300,l),
(500,300,l),
(600,500,l)
);
}
);
width = 600;
},
{
layerId = "083202A8-D484-4071-ADF3-F9529F9E0EF2";
shapes = (
{
attr = {
strokeWidth = 20;
};
closed = 1;
nodes = (
(1700,0,l),
(1800,50,l),
(1900,100,l),
(2000,200,l),
(2100,300,l),
(2100,400,l),
(2100,500,l),
(2050,600,l),
(2000,700,l),
(600,700,l),
(500,700,l),
(400,700,l),
(300,650,l),
(200,600,l),
(100,500,l),
(0,400,l),
(0,300,l),
(0,200,l),
(100,0,l)
);
},
{
attr = {
strokeWidth = 20;
};
closed = 0;
nodes = (
(1800,500,l),
(2000,300,l),
(2200,300,l),
(2400,500,l)
);
}
);
width = 2400;
},
{
layerId = "FF452C49-E890-4906-B4E4-D49F40911E04";
shapes = (
{
attr = {
strokeWidth = 20;
};
closed = 1;
nodes = (
(500,0,l),
(600,50,l),
(700,100,l),
(800,200,l),
(900,300,l),
(900,400,l),
(900,500,l),
(850,600,l),
(800,700,l),
(600,700,l),
(500,700,l),
(400,700,l),
(300,650,l),
(200,600,l),
(100,500,l),
(0,400,l),
(0,300,l),
(0,200,l),
(100,0,l)
);
},
{
attr = {
strokeWidth = 20;
};
closed = 0;
nodes = (
(600,500,l),
(800,300,l),
(1000,300,l),
(1200,500,l)
);
}
);
width = 1200;
}
);
unicode = 79;
},
{
glyphname = P;
lastChange = "2024-03-08 06:32:15 +0000";
layers = (
{
layerId = m01;
shapes = (
{
attr = {
strokeWidth = 20;
};
closed = 0;
nodes = (
(0,100,l),
(100,0,l),
(150,0,l),
(500,700,l),
(550,700,l),
(600,600,l),
(600,400,l),
(550,300,l),
(300,300,l)
);
},
{
attr = {
strokeWidth = 20;
};
closed = 0;
nodes = (
(500,700,l),
(300,700,l),
(250,650,l),
(200,550,l),
(200,450,l)
);
}
);
width = 600;
},
{
layerId = "083202A8-D484-4071-ADF3-F9529F9E0EF2";
shapes = (
{
attr = {
strokeWidth = 20;
};
closed = 0;
nodes = (
(0,100,l),
(200,0,l),
(300,0,l),
(1000,700,l),
(2300,700,l),
(2400,600,l),
(2400,400,l),
(2300,300,l),
(600,300,l)
);
},
{
attr = {
strokeWidth = 20;
};
closed = 0;
nodes = (
(1000,700,l),
(600,700,l),
(500,650,l),
(400,550,l),
(400,450,l)
);
}
);
width = 2400;
},
{
layerId = "FF452C49-E890-4906-B4E4-D49F40911E04";
shapes = (
{
attr = {
strokeWidth = 20;
};
closed = 0;
nodes = (
(0,100,l),
(200,0,l),
(300,0,l),
(1000,700,l),
(1100,700,l),
(1200,600,l),
(1200,400,l),
(1100,300,l),
(600,300,l)
);
},
{
attr = {
strokeWidth = 20;
};
closed = 0;
nodes = (
(1000,700,l),
(600,700,l),
(500,650,l),
(400,550,l),
(400,450,l)
);
}
);
width = 1200;
}
);
unicode = 80;
},
{
glyphname = Q;
lastChange = "2024-03-01 19:34:22 +0000";
layers = (
{
layerId = m01;
shapes = (
{
attr = {
strokeWidth = 20;
};
closed = 1;
nodes = (
(450,400,l),
(450,300,l),
(400,200,l),
(350,100,l),
(300,50,l),
(250,0,l),
(50,0,l),
(0,200,l),
(0,300,l),
(0,400,l),
(50,500,l),
(100,600,l),
(150,650,l),
(200,700,l),
(250,700,l),
(300,700,l),
(400,700,l),
(425,600,l),
(450,500,l)
);
},
{
attr = {
strokeWidth = 20;
};
closed = 0;
nodes = (
(200,300,l),
(250,300,l),
(400,0,l),
(500,0,l),
(600,200,l)
);
}
);
width = 600;
},
{
layerId = "083202A8-D484-4071-ADF3-F9529F9E0EF2";
shapes = (
{
attr = {
strokeWidth = 20;
};
closed = 1;
nodes = (
(2100,400,l),
(2100,300,l),
(2000,200,l),
(1900,100,l),
(1800,50,l),
(1700,0,l),
(100,0,l),
(0,200,l),
(0,300,l),
(0,400,l),
(100,500,l),
(200,600,l),
(300,650,l),
(400,700,l),
(500,700,l),
(600,700,l),
(2000,700,l),
(2050,600,l),
(2100,500,l)
);
},
{
attr = {
strokeWidth = 20;
};
closed = 0;
nodes = (
(1600,300,l),
(1700,300,l),
(2000,0,l),
(2200,0,l),
(2400,200,l)
);
}
);
width = 2400;
},
{
layerId = "FF452C49-E890-4906-B4E4-D49F40911E04";
shapes = (
{
attr = {
strokeWidth = 20;
};
closed = 1;
nodes = (
(900,400,l),
(900,300,l),
(800,200,l),
(700,100,l),
(600,50,l),
(500,0,l),
(100,0,l),
(0,200,l),
(0,300,l),
(0,400,l),
(100,500,l),
(200,600,l),
(300,650,l),
(400,700,l),
(500,700,l),
(600,700,l),
(800,700,l),
(850,600,l),
(900,500,l)
);
},
{
attr = {
strokeWidth = 20;
};
closed = 0;
nodes = (
(400,300,l),
(500,300,l),
(800,0,l),
(1000,0,l),
(1200,200,l)
);
}
);
width = 1200;
}
);
unicode = 81;
},
{
glyphname = R;
lastChange = "2024-03-08 06:42:14 +0000";
layers = (
{
layerId = m01;
shapes = (
{
attr = {
strokeWidth = 20;
};
closed = 0;
nodes = (
(0,100,l),
(100,0,l),
(150,0,l),
(501,700,l),
(550,700,l),
(600,600,l),
(600,400,l),
(551,300,l),
(301,300,l)
);
},
{
attr = {
strokeWidth = 20;
};
closed = 0;
nodes = (
(500,700,l),
(300,700,l),
(250,650,l),
(200,550,l),
(200,450,l)
);
},
{
attr = {
strokeWidth = 20;
};
closed = 0;
nodes = (
(400,300,l),
(400,100,l),
(450,0,l),
(550,0,l),
(650,200,l)
);
}
);
width = 650;
},
{
layerId = "083202A8-D484-4071-ADF3-F9529F9E0EF2";
shapes = (
{
attr = {
strokeWidth = 20;
};
closed = 0;
nodes = (
(0,100,l),
(200,0,l),
(300,0,l),
(1001,700,l),
(2300,700,l),
(2400,600,l),
(2400,400,l),
(2301,300,l),
(601,300,l)
);
},
{
attr = {
strokeWidth = 20;
};
closed = 0;
nodes = (
(1000,700,l),
(600,700,l),
(500,650,l),
(400,550,l),
(400,450,l)
);
},
{
attr = {
strokeWidth = 20;
};
closed = 0;
nodes = (
(800,300,l),
(800,100,l),
(900,0,l),
(2300,0,l),
(2500,200,l)
);
}
);
width = 2500;
},
{
layerId = "FF452C49-E890-4906-B4E4-D49F40911E04";
shapes = (
{
attr = {
strokeWidth = 20;
};
closed = 0;
nodes = (
(0,100,l),
(200,0,l),
(300,0,l),
(1001,700,l),
(1100,700,l),
(1200,600,l),
(1200,400,l),
(1101,300,l),
(601,300,l)
);
},
{
attr = {
strokeWidth = 20;
};
closed = 0;
nodes = (
(1000,700,l),
(600,700,l),
(500,650,l),
(400,550,l),
(400,450,l)
);
},
{
attr = {
strokeWidth = 20;
};
closed = 0;
nodes = (
(800,300,l),
(800,100,l),
(900,0,l),
(1100,0,l),
(1300,200,l)
);
}
);
width = 1300;
}
);
unicode = 82;
},
{
glyphname = S;
lastChange = "2024-03-08 06:52:53 +0000";
layers = (
{
layerId = m01;
shapes = (
{
attr = {
strokeWidth = 20;
};
closed = 0;
nodes = (
(50,500,l),
(0,400,l),
(0,300,l),
(0,200,l),
(50,0,l),
(350,0,l),
(400,100,l),
(400,600,l),
(450,700,l),
(550,700,l),
(600,600,l),
(600,500,l)
);
},
{
attr = {
strokeWidth = 20;
};
closed = 0;
nodes = (
(250,300,l),
(300,400,l),
(500,400,l)
);
}
);
width = 600;
},
{
layerId = "083202A8-D484-4071-ADF3-F9529F9E0EF2";
shapes = (
{
attr = {
strokeWidth = 20;
};
closed = 0;
nodes = (
(100,500,l),
(0,400,l),
(0,300,l),
(0,200,l),
(100,0,l),
(1500,0,l),
(1600,100,l),
(1600,600,l),
(1700,700,l),
(2300,700,l),
(2400,600,l),
(2400,500,l)
);
},
{
attr = {
strokeWidth = 20;
};
closed = 0;
nodes = (
(1300,300,l),
(1400,400,l),
(1800,400,l)
);
}
);
width = 2400;
},
{
layerId = "FF452C49-E890-4906-B4E4-D49F40911E04";
shapes = (
{
attr = {
strokeWidth = 20;
};
closed = 0;
nodes = (
(100,500,l),
(0,400,l),
(0,300,l),
(0,200,l),
(100,0,l),
(700,0,l),
(800,100,l),
(800,600,l),
(900,700,l),
(1100,700,l),
(1200,600,l),
(1200,500,l)
);
},
{
attr = {
strokeWidth = 20;
};
closed = 0;
nodes = (
(500,300,l),
(600,400,l),
(1000,400,l)
);
}
);
width = 1200;
}
);
unicode = 83;
},
{
glyphname = T;
lastChange = "2024-03-08 07:07:07 +0000";
layers = (
{
layerId = m01;
shapes = (
{
attr = {
strokeWidth = 20;
};
closed = 0;
nodes = (
(100,550,l),
(150,650,l),
(200,700,l),
(350,700,l),
(350,500,l),
(100,0,l),
(0,0,l)
);
},
{
attr = {
strokeWidth = 20;
};
closed = 0;
nodes = (
(350,700,l),
(500,700,l)
);
}
);
width = 500;
},
{
layerId = "083202A8-D484-4071-ADF3-F9529F9E0EF2";
shapes = (
{
attr = {
strokeWidth = 20;
};
closed = 0;
nodes = (
(200,550,l),
(300,650,l),
(400,700,l),
(1200,700,l),
(1200,500,l),
(700,0,l),
(500,0,l)
);
},
{
attr = {
strokeWidth = 20;
};
closed = 0;
nodes = (
(1200,700,l),
(2000,700,l)
);
}
);
width = 2000;
},
{
layerId = "FF452C49-E890-4906-B4E4-D49F40911E04";
shapes = (
{
attr = {
strokeWidth = 20;
};
closed = 0;
nodes = (
(200,550,l),
(300,650,l),
(400,700,l),
(700,700,l),
(700,500,l),
(200,0,l),
(0,0,l)
);
},
{
attr = {
strokeWidth = 20;
};
closed = 0;
nodes = (
(700,700,l),
(1000,700,l)
);
}
);
width = 1000;
}
);
unicode = 84;
},
{
glyphname = U;
lastChange = "2024-03-08 07:18:49 +0000";
layers = (
{
layerId = m01;
shapes = (
{
attr = {
strokeWidth = 20;
};
closed = 0;
nodes = (
(325,150,l),
(325,50,l),
(375,0,l),
(500,0,l),
(600,200,l)
);
},
{
attr = {
strokeWidth = 20;
};
closed = 0;
nodes = (
(0,600,l),
(50,700,l),
(225,700,l),
(225,600,l),
(50,300,l),
(50,100,l),
(100,0,l),
(250,0,l),
(325,150,l),
(600,700,l)
);
}
);
width = 600;
},
{
layerId = "083202A8-D484-4071-ADF3-F9529F9E0EF2";
shapes = (
{
attr = {
strokeWidth = 20;
};
closed = 0;
nodes = (
(1850,150,l),
(1850,50,l),
(1950,0,l),
(2200,0,l),
(2400,200,l)
);
},
{
attr = {
strokeWidth = 20;
};
closed = 0;
nodes = (
(0,600,l),
(100,700,l),
(450,700,l),
(450,600,l),
(100,300,l),
(100,100,l),
(200,0,l),
(1700,0,l),
(1850,150,l),
(2400,700,l)
);
}
);
width = 2400;
},
{
layerId = "FF452C49-E890-4906-B4E4-D49F40911E04";
shapes = (
{
attr = {
strokeWidth = 20;
};
closed = 0;
nodes = (
(650,150,l),
(650,50,l),
(750,0,l),
(1000,0,l),
(1200,200,l)
);
},
{
attr = {
strokeWidth = 20;
};
closed = 0;
nodes = (
(0,600,l),
(100,700,l),
(450,700,l),
(450,600,l),
(100,300,l),
(100,100,l),
(200,0,l),
(500,0,l),
(650,150,l),
(1200,700,l)
);
}
);
width = 1200;
}
);
unicode = 85;
},
{
glyphname = V;
lastChange = "2024-03-08 07:30:15 +0000";
layers = (
{
layerId = m01;
shapes = (
{
attr = {
strokeWidth = 20;
};
closed = 0;
nodes = (
(150,700,l),
(200,700,l),
(250,600,l),
(250,400,l),
(25,0,l)
);
},
{
attr = {
strokeWidth = 20;
};
closed = 0;
nodes = (
(0,0,l),
(200,0,l),
(450,250,l),
(550,450,l),
(550,600,l),
(500,700,l),
(400,700,l)
);
}
);
width = 550;
},
{
layerId = "083202A8-D484-4071-ADF3-F9529F9E0EF2";
shapes = (
{
attr = {
strokeWidth = 20;
};
closed = 0;
nodes = (
(300,700,l),
(400,700,l),
(500,600,l),
(500,400,l),
(50,0,l)
);
},
{
attr = {
strokeWidth = 20;
};
closed = 0;
nodes = (
(0,0,l),
(800,0,l),
(2000,250,l),
(2200,450,l),
(2200,600,l),
(2100,700,l),
(1900,700,l)
);
}
);
width = 2200;
},
{
layerId = "FF452C49-E890-4906-B4E4-D49F40911E04";
shapes = (
{
attr = {
strokeWidth = 20;
};
closed = 0;
nodes = (
(300,700,l),
(400,700,l),
(500,600,l),
(500,400,l),
(50,0,l)
);
},
{
attr = {
strokeWidth = 20;
};
closed = 0;
nodes = (
(0,0,l),
(400,0,l),
(900,250,l),
(1100,450,l),
(1100,600,l),
(1000,700,l),
(800,700,l)
);
}
);
width = 1100;
}
);
unicode = 86;
},
{
glyphname = W;
lastChange = "2024-03-08 07:37:31 +0000";
layers = (
{
layerId = m01;
shapes = (
{
attr = {
strokeWidth = 20;
};
closed = 0;
nodes = (
(0,600,l),
(50,700,l),
(150,700,l),
(200,650,l),
(200,550,l),
(0,150,l),
(25,50,l),
(75,0,l),
(125,0,l),
(375,500,l),
(125,0,l),
(200,150,l),
(225,50,l),
(275,0,l),
(325,0,l),
(675,700,l),
(725,700,l)
);
}
);
width = 725;
},
{
layerId = "083202A8-D484-4071-ADF3-F9529F9E0EF2";
shapes = (
{
attr = {
strokeWidth = 20;
};
closed = 0;
nodes = (
(0,600,l),
(100,700,l),
(300,700,l),
(400,650,l),
(400,550,l),
(0,150,l),
(50,50,l),
(150,0,l),
(1000,0,l),
(1500,500,l),
(1000,0,l),
(1150,150,l),
(1200,50,l),
(1300,0,l),
(2150,0,l),
(2850,700,l),
(2950,700,l)
);
}
);
width = 2950;
},
{
layerId = "FF452C49-E890-4906-B4E4-D49F40911E04";
shapes = (
{
attr = {
strokeWidth = 20;
};
closed = 0;
nodes = (
(0,600,l),
(100,700,l),
(300,700,l),
(400,650,l),
(400,550,l),
(0,150,l),
(50,50,l),
(150,0,l),
(250,0,l),
(750,500,l),
(250,0,l),
(400,150,l),
(450,50,l),
(550,0,l),
(650,0,l),
(1350,700,l),
(1450,700,l)
);
}
);
width = 1450;
}
);
unicode = 87;
},
{
glyphname = X;
lastChange = "2024-03-08 07:47:03 +0000";
layers = (
{
layerId = m01;
shapes = (
{
attr = {
strokeWidth = 20;
};
closed = 0;
nodes = (
(0,204,l),
(0,102,l),
(50,0,l),
(150,0,l),
(500,700,l),
(600,700,l),
(650,600,l),
(650,500,l)
);
},
{
attr = {
strokeWidth = 20;
};
closed = 0;
nodes = (
(150,500,l),
(150,600,l),
(200,700,l),
(300,700,l),
(325,600,l),
(325,100,l),
(350,0,l),
(500,0,l)
);
}
);
width = 650;
},
{
layerId = "083202A8-D484-4071-ADF3-F9529F9E0EF2";
shapes = (
{
attr = {
strokeWidth = 20;
};
closed = 0;
nodes = (
(0,204,l),
(0,102,l),
(100,0,l),
(500,0,l),
(2100,700,l),
(2500,700,l),
(2600,600,l),
(2600,500,l)
);
},
{
attr = {
strokeWidth = 20;
};
closed = 0;
nodes = (
(300,500,l),
(300,600,l),
(400,700,l),
(1150,700,l),
(1200,600,l),
(1200,100,l),
(1250,0,l),
(2300,0,l)
);
}
);
width = 2600;
},
{
layerId = "FF452C49-E890-4906-B4E4-D49F40911E04";
shapes = (
{
attr = {
strokeWidth = 20;
};
closed = 0;
nodes = (
(0,204,l),
(0,102,l),
(100,0,l),
(300,0,l),
(1000,700,l),
(1200,700,l),
(1300,600,l),
(1300,500,l)
);
},
{
attr = {
strokeWidth = 20;
};
closed = 0;
nodes = (
(300,500,l),
(300,600,l),
(400,700,l),
(600,700,l),
(650,600,l),
(650,100,l),
(700,0,l),
(1000,0,l)
);
}
);
width = 1300;
}
);
unicode = 88;
},
{
glyphname = Y;
lastChange = "2024-03-08 07:52:13 +0000";
layers = (
{
layerId = m01;
shapes = (
{
attr = {
strokeWidth = 20;
};
closed = 0;
nodes = (
(0,200,l),
(0,100,l),
(50,0,l),
(250,0,l),
(325,150,l),
(600,700,l)
);
},
{
attr = {
strokeWidth = 20;
};
closed = 0;
nodes = (
(150,700,l),
(275,700,l),
(275,600,l),
(225,500,l),
(225,400,l),
(275,300,l),
(400,300,l)
);
}
);
width = 600;
},
{
layerId = "083202A8-D484-4071-ADF3-F9529F9E0EF2";
shapes = (
{
attr = {
strokeWidth = 20;
};
closed = 0;
nodes = (
(0,200,l),
(0,100,l),
(100,0,l),
(1700,0,l),
(1850,150,l),
(2400,700,l)
);
},
{
attr = {
strokeWidth = 20;
};
closed = 0;
nodes = (
(300,700,l),
(550,700,l),
(550,600,l),
(450,500,l),
(450,400,l),
(550,300,l),
(2000,300,l)
);
}
);
width = 2400;
},
{
layerId = "FF452C49-E890-4906-B4E4-D49F40911E04";
shapes = (
{
attr = {
strokeWidth = 20;
};
closed = 0;
nodes = (
(0,200,l),
(0,100,l),
(100,0,l),
(500,0,l),
(650,150,l),
(1200,700,l)
);
},
{
attr = {
strokeWidth = 20;
};
closed = 0;
nodes = (
(300,700,l),
(550,700,l),
(550,600,l),
(450,500,l),
(450,400,l),
(550,300,l),
(800,300,l)
);
}
);
width = 1200;
}
);
unicode = 89;
},
{
glyphname = Z;
lastChange = "2024-03-08 08:00:45 +0000";
layers = (
{
layerId = m01;
shapes = (
{
attr = {
strokeWidth = 20;
};
closed = 0;
nodes = (
(600,700,l),
(0,0,l)
);
},
{
attr = {
strokeWidth = 20;
};
closed = 0;
nodes = (
(150,600,l),
(200,700,l),
(450,700,l),
(500,600,l)
);
},
{
attr = {
strokeWidth = 20;
};
closed = 0;
nodes = (
(600,200,l),
(600,100,l),
(550,0,l),
(275,0,l),
(125,150,l)
);
}
);
width = 600;
},
{
layerId = "083202A8-D484-4071-ADF3-F9529F9E0EF2";
shapes = (
{
attr = {
strokeWidth = 20;
};
closed = 0;
nodes = (
(2400,700,l),
(0,0,l)
);
},
{
attr = {
strokeWidth = 20;
};
closed = 0;
nodes = (
(500,600,l),
(600,700,l),
(1950,700,l),
(2050,600,l)
);
},
{
attr = {
strokeWidth = 20;
};
closed = 0;
nodes = (
(2400,200,l),
(2400,100,l),
(2300,0,l),
(800,0,l),
(500,150,l)
);
}
);
width = 2400;
},
{
layerId = "FF452C49-E890-4906-B4E4-D49F40911E04";
shapes = (
{
attr = {
strokeWidth = 20;
};
closed = 0;
nodes = (
(1200,700,l),
(0,0,l)
);
},
{
attr = {
strokeWidth = 20;
};
closed = 0;
nodes = (
(300,600,l),
(400,700,l),
(900,700,l),
(1000,600,l)
);
},
{
attr = {
strokeWidth = 20;
};
closed = 0;
nodes = (
(1200,200,l),
(1200,100,l),
(1100,0,l),
(550,0,l),
(250,150,l)
);
}
);
width = 1200;
}
);
unicode = 90;
},
{
glyphname = a;
lastChange = "2024-03-08 08:02:41 +0000";
layers = (
{
layerId = m01;
shapes = (
{
attr = {
strokeWidth = 20;
};
closed = 0;
nodes = (
(0,0,l),
(50,0,l),
(100,50,l),
(150,100,l),
(200,150,l),
(250,200,l),
(300,300,l),
(350,400,l),
(400,500,l),
(450,600,l),
(500,700,l),
(500,600,l),
(500,500,l),
(500,400,l),
(500,300,l),
(500,200,l),
(500,100,l),
(500,0,l),
(500,100,l),
(450,200,l),
(400,300,l),
(350,350,l),
(300,400,l),
(250,450,l),
(200,500,l),
(150,500,l),
(100,450,l),
(100,350,l),
(150,250,l),
(450,300,l),
(500,300,l),
(550,300,l),
(600,250,l)
);
}
);
width = 600;
},
{
layerId = "083202A8-D484-4071-ADF3-F9529F9E0EF2";
shapes = (
{
attr = {
strokeWidth = 20;
};
closed = 0;
nodes = (
(0,0,l),
(300,0,l),
(500,50,l),
(700,100,l),
(900,150,l),
(1100,200,l),
(1300,300,l),
(1500,400,l),
(1700,500,l),
(1900,600,l),
(2100,700,l),
(2100,600,l),
(2100,500,l),
(2100,400,l),
(2100,300,l),
(2100,200,l),
(2100,100,l),
(2100,0,l),
(2100,100,l),
(1900,200,l),
(1700,300,l),
(1500,350,l),
(1300,400,l),
(1100,450,l),
(900,500,l),
(500,500,l),
(400,450,l),
(400,350,l),
(500,250,l),
(1900,300,l),
(2200,300,l),
(2300,300,l),
(2400,250,l)
);
}
);
width = 2400;
},
{
layerId = "FF452C49-E890-4906-B4E4-D49F40911E04";
shapes = (
{
attr = {
strokeWidth = 20;
};
closed = 0;
nodes = (
(0,0,l),
(100,0,l),
(200,50,l),
(300,100,l),
(400,150,l),
(500,200,l),
(600,300,l),
(700,400,l),
(800,500,l),
(900,600,l),
(1000,700,l),
(1000,600,l),
(1000,500,l),
(1000,400,l),
(1000,300,l),
(1000,200,l),
(1000,100,l),
(1000,0,l),
(1000,100,l),
(900,200,l),
(800,300,l),
(700,350,l),
(600,400,l),
(500,450,l),
(400,500,l),
(300,500,l),
(200,450,l),
(200,350,l),
(300,250,l),
(900,300,l),
(1000,300,l),
(1100,300,l),
(1200,250,l)
);
}
);
width = 1200;
}
);
unicode = 97;
},
{
glyphname = b;
lastChange = "2024-03-08 08:02:45 +0000";
layers = (
{
layerId = m01;
shapes = (
{
attr = {
strokeWidth = 20;
};
closed = 0;
nodes = (
(0,103,l),
(100,0,l),
(150,0,l),
(500,700,l),
(550,700,l),
(600,600,l),
(600,400,l),
(550,300,l),
(300,300,l),
(550,300,l),
(600,200,l),
(600,100,l),
(550,0,l),
(250,0,l),
(150,200,l),
(150,400,l),
(200,500,l)
);
}
);
width = 600;
},
{
layerId = "083202A8-D484-4071-ADF3-F9529F9E0EF2";
shapes = (
{
attr = {
strokeWidth = 20;
};
closed = 0;
nodes = (
(0,103,l),
(200,0,l),
(300,0,l),
(1000,700,l),
(2300,700,l),
(2400,600,l),
(2400,400,l),
(2200,300,l),
(600,300,l),
(2300,300,l),
(2400,200,l),
(2400,100,l),
(2300,0,l),
(500,0,l),
(300,200,l),
(300,400,l),
(400,500,l)
);
}
);
width = 2400;
},
{
layerId = "FF452C49-E890-4906-B4E4-D49F40911E04";
shapes = (
{
attr = {
strokeWidth = 20;
};
closed = 0;
nodes = (
(0,103,l),
(200,0,l),
(300,0,l),
(1000,700,l),
(1100,700,l),
(1200,600,l),
(1200,400,l),
(1100,300,l),
(600,300,l),
(1100,300,l),
(1200,200,l),
(1200,100,l),
(1100,0,l),
(500,0,l),
(300,200,l),
(300,400,l),
(400,500,l)
);
}
);
width = 1200;
}
);
unicode = 98;
},
{
glyphname = c;
lastChange = "2024-03-08 08:02:48 +0000";
layers = (
{
layerId = m01;
shapes = (
{
attr = {
strokeWidth = 20;
};
closed = 0;
nodes = (
(350,300,l),
(300,200,l),
(250,100,l),
(200,0,l),
(150,0,l),
(100,0,l),
(0,92,l)
);
},
{
attr = {
strokeWidth = 20;
};
closed = 0;
nodes = (
(550,100,l),
(500,50,l),
(450,0,l),
(250,0,l),
(200,200,l),
(200,300,l),
(200,400,l),
(250,500,l),
(300,600,l),
(350,650,l),
(400,700,l),
(450,700,l),
(500,700,l),
(600,700,l),
(625,600,l),
(650,500,l)
);
}
);
width = 650;
},
{
layerId = "083202A8-D484-4071-ADF3-F9529F9E0EF2";
shapes = (
{
attr = {
strokeWidth = 20;
};
closed = 0;
nodes = (
(700,300,l),
(600,200,l),
(500,100,l),
(400,0,l),
(300,0,l),
(200,0,l),
(0,92,l)
);
},
{
attr = {
strokeWidth = 20;
};
closed = 0;
nodes = (
(2400,100,l),
(2300,50,l),
(2200,0,l),
(500,0,l),
(400,200,l),
(400,300,l),
(400,400,l),
(500,500,l),
(600,600,l),
(700,650,l),
(800,700,l),
(900,700,l),
(1000,700,l),
(2500,700,l),
(2550,600,l),
(2600,500,l)
);
}
);
width = 2600;
},
{
layerId = "FF452C49-E890-4906-B4E4-D49F40911E04";
shapes = (
{
attr = {
strokeWidth = 20;
};
closed = 0;
nodes = (
(700,300,l),
(600,200,l),
(500,100,l),
(400,0,l),
(300,0,l),
(200,0,l),
(0,92,l)
);
},
{
attr = {
strokeWidth = 20;
};
closed = 0;
nodes = (
(1100,100,l),
(1000,50,l),
(900,0,l),
(500,0,l),
(400,200,l),
(400,300,l),
(400,400,l),
(500,500,l),
(600,600,l),
(700,650,l),
(800,700,l),
(900,700,l),
(1000,700,l),
(1200,700,l),
(1250,600,l),
(1300,500,l)
);
}
);
width = 1300;
}
);
unicode = 99;
},
{
glyphname = d;
lastChange = "2024-03-08 08:02:50 +0000";
layers = (
{
layerId = m01;
shapes = (
{
attr = {
strokeWidth = 20;
};
closed = 0;
nodes = (
(0,92,l),
(100,0,l),
(150,0,l),
(200,0,l),
(250,100,l),
(300,200,l),
(550,700,l)
);
},
{
attr = {
strokeWidth = 20;
};
closed = 0;
nodes = (
(300,600,l),
(350,650,l),
(400,700,l),
(450,700,l),
(500,700,l),
(600,700,l),
(625,600,l),
(650,500,l),
(650,400,l),
(650,300,l),
(600,200,l),
(550,100,l),
(500,50,l),
(450,0,l),
(250,0,l),
(200,200,l),
(200,300,l),
(200,400,l)
);
}
);
width = 650;
},
{
layerId = "083202A8-D484-4071-ADF3-F9529F9E0EF2";
shapes = (
{
attr = {
strokeWidth = 20;
};
closed = 0;
nodes = (
(0,92,l),
(200,0,l),
(300,0,l),
(400,0,l),
(500,100,l),
(600,200,l),
(1100,700,l)
);
},
{
attr = {
strokeWidth = 20;
};
closed = 0;
nodes = (
(600,600,l),
(700,650,l),
(800,700,l),
(900,700,l),
(1000,700,l),
(2500,700,l),
(2550,600,l),
(2600,500,l),
(2600,400,l),
(2600,300,l),
(2500,200,l),
(2400,100,l),
(2300,50,l),
(2200,0,l),
(500,0,l),
(400,200,l),
(400,300,l),
(400,400,l)
);
}
);
width = 2600;
},
{
layerId = "FF452C49-E890-4906-B4E4-D49F40911E04";
shapes = (
{
attr = {
strokeWidth = 20;
};
closed = 0;
nodes = (
(0,92,l),
(200,0,l),
(300,0,l),
(400,0,l),
(500,100,l),
(600,200,l),
(1100,700,l)
);
},
{
attr = {
strokeWidth = 20;
};
closed = 0;
nodes = (
(600,600,l),
(700,650,l),
(800,700,l),
(900,700,l),
(1000,700,l),
(1200,700,l),
(1250,600,l),
(1300,500,l),
(1300,400,l),
(1300,300,l),
(1200,200,l),
(1100,100,l),
(1000,50,l),
(900,0,l),
(500,0,l),
(400,200,l),
(400,300,l),
(400,400,l)
);
}
);
width = 1300;
}
);
unicode = 100;
},
{
glyphname = e;
lastChange = "2024-03-08 08:02:52 +0000";
layers = (
{
layerId = m01;
shapes = (
{
attr = {
strokeWidth = 20;
};
closed = 0;
nodes = (
(325,500,l),
(225,500,l),
(100,500,l),
(0,700,l)
);
},
{
attr = {
strokeWidth = 20;
};
closed = 0;
nodes = (
(550,600,l),
(525,700,l),
(425,700,l),
(375,700,l),
(275,600,l),
(275,400,l)
);
},
{
attr = {
strokeWidth = 20;
};
closed = 0;
nodes = (
(475,100,l),
(425,50,l),
(375,0,l),
(125,0,l),
(75,100,l),
(75,300,l),
(125,400,l),
(275,400,l),
(375,300,l),
(425,300,l)
);
}
);
width = 550;
},
{
layerId = "083202A8-D484-4071-ADF3-F9529F9E0EF2";
shapes = (
{
attr = {
strokeWidth = 20;
};
closed = 0;
nodes = (
(650,500,l),
(450,500,l),
(200,500,l),
(0,700,l)
);
},
{
attr = {
strokeWidth = 20;
};
closed = 0;
nodes = (
(2200,600,l),
(2150,700,l),
(850,700,l),
(750,700,l),
(550,600,l),
(550,400,l)
);
},
{
attr = {
strokeWidth = 20;
};
closed = 0;
nodes = (
(2050,100,l),
(1950,50,l),
(1850,0,l),
(250,0,l),
(150,100,l),
(150,300,l),
(250,400,l),
(550,400,l),
(750,300,l),
(1950,300,l)
);
}
);
width = 2200;
},
{
layerId = "FF452C49-E890-4906-B4E4-D49F40911E04";
shapes = (
{
attr = {
strokeWidth = 20;
};
closed = 0;
nodes = (
(650,500,l),
(450,500,l),
(200,500,l),
(0,700,l)
);
},
{
attr = {
strokeWidth = 20;
};
closed = 0;
nodes = (
(1100,600,l),
(1050,700,l),
(850,700,l),
(750,700,l),
(550,600,l),
(550,400,l)
);
},
{
attr = {
strokeWidth = 20;
};
closed = 0;
nodes = (
(950,100,l),
(850,50,l),
(750,0,l),
(250,0,l),
(150,100,l),
(150,300,l),
(250,400,l),
(550,400,l),
(750,300,l),
(850,300,l)
);
}
);
width = 1100;
}
);
unicode = 101;
},
{
glyphname = f;
lastChange = "2024-03-08 08:02:54 +0000";
layers = (
{
layerId = m01;
shapes = (
{
attr = {
strokeWidth = 20;
};
closed = 0;
nodes = (
(500,300,l),
(400,300,l),
(300,500,l)
);
},
{
attr = {
strokeWidth = 20;
};
closed = 0;
nodes = (
(400,700,l),
(400,500,l),
(150,0,l),
(100,0,l),
(0,92,l)
);
},
{
attr = {
strokeWidth = 20;
};
closed = 0;
nodes = (
(250,200,l),
(150,400,l),
(150,600,l),
(250,700,l),
(600,700,l),
(625,600,l)
);
}
);
width = 625;
},
{
layerId = "083202A8-D484-4071-ADF3-F9529F9E0EF2";
shapes = (
{
attr = {
strokeWidth = 20;
};
closed = 0;
nodes = (
(1650,300,l),
(800,300,l),
(600,500,l)
);
},
{
attr = {
strokeWidth = 20;
};
closed = 0;
nodes = (
(800,700,l),
(800,500,l),
(300,0,l),
(200,0,l),
(0,92,l)
);
},
{
attr = {
strokeWidth = 20;
};
closed = 0;
nodes = (
(500,200,l),
(300,400,l),
(300,600,l),
(500,700,l),
(2450,700,l),
(2500,600,l)
);
}
);
width = 2500;
},
{
layerId = "FF452C49-E890-4906-B4E4-D49F40911E04";
shapes = (
{
attr = {
strokeWidth = 20;
};
closed = 0;
nodes = (
(1000,300,l),
(800,300,l),
(600,500,l)
);
},
{
attr = {
strokeWidth = 20;
};
closed = 0;
nodes = (
(800,700,l),
(800,500,l),
(300,0,l),
(200,0,l),
(0,92,l)
);
},
{
attr = {
strokeWidth = 20;
};
closed = 0;
nodes = (
(500,200,l),
(300,400,l),
(300,600,l),
(500,700,l),
(1200,700,l),
(1250,600,l)
);
}
);
width = 1250;
}
);
unicode = 102;
},
{
glyphname = g;
lastChange = "2024-03-08 08:02:56 +0000";
layers = (
{
layerId = m01;
shapes = (
{
attr = {
strokeWidth = 20;
};
closed = 0;
nodes = (
(350,300,l),
(300,200,l),
(250,100,l),
(200,0,l),
(150,0,l),
(100,0,l),
(0,92,l)
);
},
{
attr = {
strokeWidth = 20;
};
closed = 0;
nodes = (
(550,0,l),
(550,200,l),
(600,300,l),
(550,200,l),
(450,0,l),
(250,0,l),
(200,200,l),
(200,300,l),
(200,400,l),
(250,500,l),
(300,600,l),
(350,650,l),
(400,700,l),
(450,700,l),
(500,700,l),
(600,700,l),
(625,600,l),
(650,500,l)
);
}
);
width = 650;
},
{
layerId = "083202A8-D484-4071-ADF3-F9529F9E0EF2";
shapes = (
{
attr = {
strokeWidth = 20;
};
closed = 0;
nodes = (
(700,300,l),
(600,200,l),
(500,100,l),
(400,0,l),
(300,0,l),
(200,0,l),
(0,92,l)
);
},
{
attr = {
strokeWidth = 20;
};
closed = 0;
nodes = (
(2200,0,l),
(2200,200,l),
(2300,300,l),
(2200,200,l),
(2000,0,l),
(500,0,l),
(400,200,l),
(400,300,l),
(400,400,l),
(500,500,l),
(600,600,l),
(700,650,l),
(800,700,l),
(900,700,l),
(1000,700,l),
(2300,700,l),
(2350,600,l),
(2400,500,l)
);
}
);
width = 2400;
},
{
layerId = "FF452C49-E890-4906-B4E4-D49F40911E04";
shapes = (
{
attr = {
strokeWidth = 20;
};
closed = 0;
nodes = (
(700,300,l),
(600,200,l),
(500,100,l),
(400,0,l),
(300,0,l),
(200,0,l),
(0,92,l)
);
},
{
attr = {
strokeWidth = 20;
};
closed = 0;
nodes = (
(1100,0,l),
(1100,200,l),
(1200,300,l),
(1100,200,l),
(900,0,l),
(500,0,l),
(400,200,l),
(400,300,l),
(400,400,l),
(500,500,l),
(600,600,l),
(700,650,l),
(800,700,l),
(900,700,l),
(1000,700,l),
(1200,700,l),
(1250,600,l),
(1300,500,l)
);
}
);
width = 1300;
}
);
unicode = 103;
},
{
glyphname = h;
lastChange = "2024-03-08 08:02:59 +0000";
layers = (
{
layerId = m01;
shapes = (
{
attr = {
strokeWidth = 20;
};
closed = 0;
nodes = (
(0,100,l),
(100,0,l),
(200,0,l),
(450,500,l),
(450,700,l),
(300,700,l),
(250,650,l),
(200,550,l)
);
},
{
attr = {
strokeWidth = 20;
};
closed = 0;
nodes = (
(650,700,l),
(650,500,l),
(400,0,l)
);
},
{
attr = {
strokeWidth = 20;
};
closed = 0;
nodes = (
(200,350,l),
(250,300,l),
(550,300,l)
);
}
);
width = 650;
},
{
layerId = "083202A8-D484-4071-ADF3-F9529F9E0EF2";
shapes = (
{
attr = {
strokeWidth = 20;
};
closed = 0;
nodes = (
(0,100,l),
(200,0,l),
(400,0,l),
(900,500,l),
(900,700,l),
(600,700,l),
(500,650,l),
(400,550,l)
);
},
{
attr = {
strokeWidth = 20;
};
closed = 0;
nodes = (
(2600,700,l),
(2600,500,l),
(2100,0,l)
);
},
{
attr = {
strokeWidth = 20;
};
closed = 0;
nodes = (
(400,350,l),
(500,300,l),
(2400,300,l)
);
}
);
width = 2600;
},
{
layerId = "FF452C49-E890-4906-B4E4-D49F40911E04";
shapes = (
{
attr = {
strokeWidth = 20;
};
closed = 0;
nodes = (
(0,100,l),
(200,0,l),
(400,0,l),
(900,500,l),
(900,700,l),
(600,700,l),
(500,650,l),
(400,550,l)
);
},
{
attr = {
strokeWidth = 20;
};
closed = 0;
nodes = (
(1300,700,l),
(1300,500,l),
(800,0,l)
);
},
{
attr = {
strokeWidth = 20;
};
closed = 0;
nodes = (
(400,350,l),
(500,300,l),
(1100,300,l)
);
}
);
width = 1300;
}
);
unicode = 104;
},
{
glyphname = i;
lastChange = "2024-03-08 08:03:02 +0000";
layers = (
{
layerId = m01;
shapes = (
{
attr = {
strokeWidth = 20;
};
closed = 0;
nodes = (
(0,100,l),
(100,0,l),
(200,0,l),
(450,500,l),
(450,700,l),
(300,700,l),
(250,650,l),
(200,550,l)
);
},
{
attr = {
strokeWidth = 20;
};
closed = 0;
nodes = (
(450,700,l),
(600,700,l)
);
},
{
attr = {
strokeWidth = 20;
};
closed = 0;
nodes = (
(200,0,l),
(400,0,l)
);
}
);
width = 600;
},
{
layerId = "083202A8-D484-4071-ADF3-F9529F9E0EF2";
shapes = (
{
attr = {
strokeWidth = 20;
};
closed = 0;
nodes = (
(0,100,l),
(200,0,l),
(1000,0,l),
(1500,500,l),
(1500,700,l),
(600,700,l),
(500,650,l),
(400,550,l)
);
},
{
attr = {
strokeWidth = 20;
};
closed = 0;
nodes = (
(1500,700,l),
(2400,700,l)
);
},
{
attr = {
strokeWidth = 20;
};
closed = 0;
nodes = (
(1000,0,l),
(2000,0,l)
);
}
);
width = 2400;
},
{
layerId = "FF452C49-E890-4906-B4E4-D49F40911E04";
shapes = (
{
attr = {
strokeWidth = 20;
};
closed = 0;
nodes = (
(0,100,l),
(200,0,l),
(400,0,l),
(900,500,l),
(900,700,l),
(600,700,l),
(500,650,l),
(400,550,l)
);
},
{
attr = {
strokeWidth = 20;
};
closed = 0;
nodes = (
(900,700,l),
(1200,700,l)
);
},
{
attr = {
strokeWidth = 20;
};
closed = 0;
nodes = (
(400,0,l),
(800,0,l)
);
}
);
width = 1200;
}
);
unicode = 105;
},
{
glyphname = j;
lastChange = "2024-03-08 08:03:04 +0000";
layers = (
{
layerId = m01;
shapes = (
{
attr = {
strokeWidth = 20;
};
closed = 0;
nodes = (
(550,700,l),
(200,0,l),
(50,0,l),
(0,100,l),
(0,300,l),
(50,400,l),
(250,400,l),
(350,0,l),
(450,0,l),
(600,300,l)
);
},
{
attr = {
strokeWidth = 20;
};
closed = 0;
nodes = (
(250,700,l),
(600,700,l)
);
}
);
width = 600;
},
{
layerId = "083202A8-D484-4071-ADF3-F9529F9E0EF2";
shapes = (
{
attr = {
strokeWidth = 20;
};
closed = 0;
nodes = (
(2300,700,l),
(1600,0,l),
(100,0,l),
(0,100,l),
(1,300,l),
(100,400,l),
(1700,400,l),
(1900,0,l),
(2100,0,l),
(2400,300,l)
);
},
{
attr = {
strokeWidth = 20;
};
closed = 0;
nodes = (
(1000,700,l),
(2400,700,l)
);
}
);
width = 2400;
},
{
layerId = "FF452C49-E890-4906-B4E4-D49F40911E04";
shapes = (
{
attr = {
strokeWidth = 20;
};
closed = 0;
nodes = (
(1100,700,l),
(400,0,l),
(100,0,l),
(0,100,l),
(0,300,l),
(100,400,l),
(500,400,l),
(700,0,l),
(900,0,l),
(1200,300,l)
);
},
{
attr = {
strokeWidth = 20;
};
closed = 0;
nodes = (
(500,700,l),
(1200,700,l)
);
}
);
width = 1200;
}
);
unicode = 106;
},
{
glyphname = k;
lastChange = "2024-03-08 08:03:07 +0000";
layers = (
{
layerId = m01;
shapes = (
{
attr = {
strokeWidth = 20;
};
closed = 0;
nodes = (
(0,0,l),
(150,0,l),
(400,500,l),
(400,700,l),
(250,700,l),
(200,650,l),
(150,550,l)
);
},
{
attr = {
strokeWidth = 20;
};
closed = 0;
nodes = (
(600,700,l),
(600,500,l),
(400,300,l),
(300,300,l),
(250,400,l)
);
},
{
attr = {
strokeWidth = 20;
};
closed = 0;
nodes = (
(300,300,l),
(450,0,l),
(550,0,l),
(600,100,l)
);
}
);
width = 600;
},
{
layerId = "083202A8-D484-4071-ADF3-F9529F9E0EF2";
shapes = (
{
attr = {
strokeWidth = 20;
};
closed = 0;
nodes = (
(0,0,l),
(300,0,l),
(800,500,l),
(800,700,l),
(500,700,l),
(400,650,l),
(300,550,l)
);
},
{
attr = {
strokeWidth = 20;
};
closed = 0;
nodes = (
(2400,700,l),
(2400,500,l),
(1100,300,l),
(600,300,l),
(400,400,l)
);
},
{
attr = {
strokeWidth = 20;
};
closed = 0;
nodes = (
(600,300,l),
(1200,0,l),
(2300,0,l),
(2400,100,l)
);
}
);
width = 2400;
},
{
layerId = "FF452C49-E890-4906-B4E4-D49F40911E04";
shapes = (
{
attr = {
strokeWidth = 20;
};
closed = 0;
nodes = (
(0,0,l),
(300,0,l),
(800,500,l),
(800,700,l),
(500,700,l),
(400,650,l),
(300,550,l)
);
},
{
attr = {
strokeWidth = 20;
};
closed = 0;
nodes = (
(1200,700,l),
(1200,500,l),
(800,300,l),
(600,300,l),
(500,400,l)
);
},
{
attr = {
strokeWidth = 20;
};
closed = 0;
nodes = (
(600,300,l),
(900,0,l),
(1100,0,l),
(1200,100,l)
);
}
);
width = 1200;
}
);
unicode = 107;
},
{
glyphname = l;
lastChange = "2024-03-08 08:03:09 +0000";
layers = (
{
layerId = m01;
shapes = (
{
attr = {
strokeWidth = 20;
};
closed = 0;
nodes = (
(500,700,l),
(450,700,l),
(150,0,l),
(50,0,l),
(0,112,l),
(0,300,l),
(50,400,l),
(150,400,l),
(350,0,l),
(550,0,l),
(600,100,l)
);
}
);
width = 600;
},
{
layerId = "083202A8-D484-4071-ADF3-F9529F9E0EF2";
shapes = (
{
attr = {
strokeWidth = 20;
};
closed = 0;
nodes = (
(1000,700,l),
(900,700,l),
(300,0,l),
(100,0,l),
(0,112,l),
(0,300,l),
(100,400,l),
(300,400,l),
(700,0,l),
(2300,0,l),
(2400,100,l)
);
}
);
width = 2400;
},
{
layerId = "FF452C49-E890-4906-B4E4-D49F40911E04";
shapes = (
{
attr = {
strokeWidth = 20;
};
closed = 0;
nodes = (
(1000,700,l),
(900,700,l),
(300,0,l),
(100,0,l),
(0,112,l),
(0,300,l),
(100,400,l),
(300,400,l),
(700,0,l),
(1100,0,l),
(1200,100,l)
);
}
);
width = 1200;
}
);
unicode = 108;
},
{
glyphname = m;
lastChange = "2024-03-08 08:03:10 +0000";
layers = (
{
layerId = m01;
shapes = (
{
attr = {
strokeWidth = 20;
};
closed = 0;
nodes = (
(735,100,l),
(685,0,l),
(585,0,l),
(535,50,l),
(535,150,l),
(735,550,l),
(710,650,l),
(660,700,l),
(610,700,l),
(360,200,l),
(610,700,l),
(535,550,l),
(510,650,l),
(460,700,l),
(410,700,l),
(60,0,l),
(10,0,l)
);
}
);
width = 725;
},
{
layerId = "083202A8-D484-4071-ADF3-F9529F9E0EF2";
shapes = (
{
attr = {
strokeWidth = 20;
};
closed = 0;
nodes = (
(2950,100,l),
(2850,0,l),
(2650,0,l),
(2550,50,l),
(2550,150,l),
(2950,550,l),
(2900,650,l),
(2800,700,l),
(1950,700,l),
(1450,200,l),
(1950,700,l),
(1800,550,l),
(1750,650,l),
(1650,700,l),
(800,700,l),
(100,0,l),
(0,0,l)
);
}
);
width = 2950;
},
{
layerId = "FF452C49-E890-4906-B4E4-D49F40911E04";
shapes = (
{
attr = {
strokeWidth = 20;
};
closed = 0;
nodes = (
(1450,100,l),
(1350,0,l),
(1150,0,l),
(1050,50,l),
(1050,150,l),
(1450,550,l),
(1400,650,l),
(1300,700,l),
(1200,700,l),
(700,200,l),
(1200,700,l),
(1050,550,l),
(1000,650,l),
(900,700,l),
(800,700,l),
(100,0,l),
(0,0,l)
);
}
);
width = 1450;
}
);
unicode = 109;
},
{
glyphname = n;
lastChange = "2024-03-08 08:03:13 +0000";
layers = (
{
layerId = m01;
shapes = (
{
attr = {
strokeWidth = 20;
};
closed = 0;
nodes = (
(350,0,l),
(700,700,l)
);
},
{
attr = {
strokeWidth = 20;
};
closed = 0;
nodes = (
(400,700,l),
(400,100,l)
);
},
{
attr = {
strokeWidth = 20;
};
closed = 0;
nodes = (
(0,0,l),
(50,0,l),
(400,700,l)
);
}
);
width = 700;
},
{
layerId = "083202A8-D484-4071-ADF3-F9529F9E0EF2";
shapes = (
{
attr = {
strokeWidth = 20;
};
closed = 0;
nodes = (
(2100,0,l),
(2800,700,l)
);
},
{
attr = {
strokeWidth = 20;
};
closed = 0;
nodes = (
(800,700,l),
(2200,100,l)
);
},
{
attr = {
strokeWidth = 20;
};
closed = 0;
nodes = (
(0,0,l),
(100,0,l),
(800,700,l)
);
}
);
width = 2800;
},
{
layerId = "FF452C49-E890-4906-B4E4-D49F40911E04";
shapes = (
{
attr = {
strokeWidth = 20;
};
closed = 0;
nodes = (
(700,0,l),
(1400,700,l)
);
},
{
attr = {
strokeWidth = 20;
};
closed = 0;
nodes = (
(800,700,l),
(800,100,l)
);
},
{
attr = {
strokeWidth = 20;
};
closed = 0;
nodes = (
(0,0,l),
(100,0,l),
(800,700,l)
);
}
);
width = 1400;
}
);
unicode = 110;
},
{
glyphname = o;
lastChange = "2024-03-08 08:03:14 +0000";
layers = (
{
layerId = m01;
shapes = (
{
attr = {
strokeWidth = 20;
};
closed = 1;
nodes = (
(250,0,l),
(300,50,l),
(350,100,l),
(400,200,l),
(450,300,l),
(450,400,l),
(450,500,l),
(425,600,l),
(400,700,l),
(300,700,l),
(250,700,l),
(200,700,l),
(150,650,l),
(100,600,l),
(50,500,l),
(0,400,l),
(0,300,l),
(0,200,l),
(50,0,l)
);
},
{
attr = {
strokeWidth = 20;
};
closed = 0;
nodes = (
(300,500,l),
(400,300,l),
(500,300,l),
(600,500,l)
);
}
);
width = 600;
},
{
layerId = "083202A8-D484-4071-ADF3-F9529F9E0EF2";
shapes = (
{
attr = {
strokeWidth = 20;
};
closed = 1;
nodes = (
(1700,0,l),
(1800,50,l),
(1900,100,l),
(2000,200,l),
(2100,300,l),
(2100,400,l),
(2100,500,l),
(2050,600,l),
(2000,700,l),
(600,700,l),
(500,700,l),
(400,700,l),
(300,650,l),
(200,600,l),
(100,500,l),
(0,400,l),
(0,300,l),
(0,200,l),
(100,0,l)
);
},
{
attr = {
strokeWidth = 20;
};
closed = 0;
nodes = (
(1800,500,l),
(2000,300,l),
(2200,300,l),
(2400,500,l)
);
}
);
width = 2400;
},
{
layerId = "FF452C49-E890-4906-B4E4-D49F40911E04";
shapes = (
{
attr = {
strokeWidth = 20;
};
closed = 1;
nodes = (
(500,0,l),
(600,50,l),
(700,100,l),
(800,200,l),
(900,300,l),
(900,400,l),
(900,500,l),
(850,600,l),
(800,700,l),
(600,700,l),
(500,700,l),
(400,700,l),
(300,650,l),
(200,600,l),
(100,500,l),
(0,400,l),
(0,300,l),
(0,200,l),
(100,0,l)
);
},
{
attr = {
strokeWidth = 20;
};
closed = 0;
nodes = (
(600,500,l),
(800,300,l),
(1000,300,l),
(1200,500,l)
);
}
);
width = 1200;
}
);
unicode = 111;
},
{
glyphname = p;
lastChange = "2024-03-08 08:03:17 +0000";
layers = (
{
layerId = m01;
shapes = (
{
attr = {
strokeWidth = 20;
};
closed = 0;
nodes = (
(0,100,l),
(100,0,l),
(150,0,l),
(500,700,l),
(550,700,l),
(600,600,l),
(600,400,l),
(550,300,l),
(300,300,l)
);
},
{
attr = {
strokeWidth = 20;
};
closed = 0;
nodes = (
(500,700,l),
(300,700,l),
(250,650,l),
(200,550,l),
(200,450,l)
);
}
);
width = 600;
},
{
layerId = "083202A8-D484-4071-ADF3-F9529F9E0EF2";
shapes = (
{
attr = {
strokeWidth = 20;
};
closed = 0;
nodes = (
(0,100,l),
(200,0,l),
(300,0,l),
(1000,700,l),
(2300,700,l),
(2400,600,l),
(2400,400,l),
(2300,300,l),
(600,300,l)
);
},
{
attr = {
strokeWidth = 20;
};
closed = 0;
nodes = (
(1000,700,l),
(600,700,l),
(500,650,l),
(400,550,l),
(400,450,l)
);
}
);
width = 2400;
},
{
layerId = "FF452C49-E890-4906-B4E4-D49F40911E04";
shapes = (
{
attr = {
strokeWidth = 20;
};
closed = 0;
nodes = (
(0,100,l),
(200,0,l),
(300,0,l),
(1000,700,l),
(1100,700,l),
(1200,600,l),
(1200,400,l),
(1100,300,l),
(600,300,l)
);
},
{
attr = {
strokeWidth = 20;
};
closed = 0;
nodes = (
(1000,700,l),
(600,700,l),
(500,650,l),
(400,550,l),
(400,450,l)
);
}
);
width = 1200;
}
);
unicode = 112;
},
{
glyphname = q;
lastChange = "2024-03-08 08:03:18 +0000";
layers = (
{
layerId = m01;
shapes = (
{
attr = {
strokeWidth = 20;
};
closed = 1;
nodes = (
(450,400,l),
(450,300,l),
(400,200,l),
(350,100,l),
(300,50,l),
(250,0,l),
(50,0,l),
(0,200,l),
(0,300,l),
(0,400,l),
(50,500,l),
(100,600,l),
(150,650,l),
(200,700,l),
(250,700,l),
(300,700,l),
(400,700,l),
(425,600,l),
(450,500,l)
);
},
{
attr = {
strokeWidth = 20;
};
closed = 0;
nodes = (
(200,300,l),
(250,300,l),
(400,0,l),
(500,0,l),
(600,200,l)
);
}
);
width = 600;
},
{
layerId = "083202A8-D484-4071-ADF3-F9529F9E0EF2";
shapes = (
{
attr = {
strokeWidth = 20;
};
closed = 1;
nodes = (
(2100,400,l),
(2100,300,l),
(2000,200,l),
(1900,100,l),
(1800,50,l),
(1700,0,l),
(100,0,l),
(0,200,l),
(0,300,l),
(0,400,l),
(100,500,l),
(200,600,l),
(300,650,l),
(400,700,l),
(500,700,l),
(600,700,l),
(2000,700,l),
(2050,600,l),
(2100,500,l)
);
},
{
attr = {
strokeWidth = 20;
};
closed = 0;
nodes = (
(1600,300,l),
(1700,300,l),
(2000,0,l),
(2200,0,l),
(2400,200,l)
);
}
);
width = 2400;
},
{
layerId = "FF452C49-E890-4906-B4E4-D49F40911E04";
shapes = (
{
attr = {
strokeWidth = 20;
};
closed = 1;
nodes = (
(900,400,l),
(900,300,l),
(800,200,l),
(700,100,l),
(600,50,l),
(500,0,l),
(100,0,l),
(0,200,l),
(0,300,l),
(0,400,l),
(100,500,l),
(200,600,l),
(300,650,l),
(400,700,l),
(500,700,l),
(600,700,l),
(800,700,l),
(850,600,l),
(900,500,l)
);
},
{
attr = {
strokeWidth = 20;
};
closed = 0;
nodes = (
(400,300,l),
(500,300,l),
(800,0,l),
(1000,0,l),
(1200,200,l)
);
}
);
width = 1200;
}
);
unicode = 113;
},
{
glyphname = r;
lastChange = "2024-03-08 08:03:21 +0000";
layers = (
{
layerId = m01;
shapes = (
{
attr = {
strokeWidth = 20;
};
closed = 0;
nodes = (
(0,100,l),
(100,0,l),
(150,0,l),
(501,700,l),
(550,700,l),
(600,600,l),
(600,400,l),
(551,300,l),
(301,300,l)
);
},
{
attr = {
strokeWidth = 20;
};
closed = 0;
nodes = (
(500,700,l),
(300,700,l),
(250,650,l),
(200,550,l),
(200,450,l)
);
},
{
attr = {
strokeWidth = 20;
};
closed = 0;
nodes = (
(400,300,l),
(400,100,l),
(450,0,l),
(550,0,l),
(650,200,l)
);
}
);
width = 650;
},
{
layerId = "083202A8-D484-4071-ADF3-F9529F9E0EF2";
shapes = (
{
attr = {
strokeWidth = 20;
};
closed = 0;
nodes = (
(0,100,l),
(200,0,l),
(300,0,l),
(1001,700,l),
(2300,700,l),
(2400,600,l),
(2400,400,l),
(2301,300,l),
(601,300,l)
);
},
{
attr = {
strokeWidth = 20;
};
closed = 0;
nodes = (
(1000,700,l),
(600,700,l),
(500,650,l),
(400,550,l),
(400,450,l)
);
},
{
attr = {
strokeWidth = 20;
};
closed = 0;
nodes = (
(800,300,l),
(800,100,l),
(900,0,l),
(2300,0,l),
(2500,200,l)
);
}
);
width = 2500;
},
{
layerId = "FF452C49-E890-4906-B4E4-D49F40911E04";
shapes = (
{
attr = {
strokeWidth = 20;
};
closed = 0;
nodes = (
(0,100,l),
(200,0,l),
(300,0,l),
(1001,700,l),
(1100,700,l),
(1200,600,l),
(1200,400,l),
(1101,300,l),
(601,300,l)
);
},
{
attr = {
strokeWidth = 20;
};
closed = 0;
nodes = (
(1000,700,l),
(600,700,l),
(500,650,l),
(400,550,l),
(400,450,l)
);
},
{
attr = {
strokeWidth = 20;
};
closed = 0;
nodes = (
(800,300,l),
(800,100,l),
(900,0,l),
(1100,0,l),
(1300,200,l)
);
}
);
width = 1300;
}
);
unicode = 114;
},
{
glyphname = s;
lastChange = "2024-03-08 08:03:23 +0000";
layers = (
{
layerId = m01;
shapes = (
{
attr = {
strokeWidth = 20;
};
closed = 0;
nodes = (
(50,500,l),
(0,400,l),
(0,300,l),
(0,200,l),
(50,0,l),
(350,0,l),
(400,100,l),
(400,600,l),
(450,700,l),
(550,700,l),
(600,600,l),
(600,500,l)
);
},
{
attr = {
strokeWidth = 20;
};
closed = 0;
nodes = (
(250,300,l),
(300,400,l),
(500,400,l)
);
}
);
width = 600;
},
{
layerId = "083202A8-D484-4071-ADF3-F9529F9E0EF2";
shapes = (
{
attr = {
strokeWidth = 20;
};
closed = 0;
nodes = (
(100,500,l),
(0,400,l),
(0,300,l),
(0,200,l),
(100,0,l),
(1500,0,l),
(1600,100,l),
(1600,600,l),
(1700,700,l),
(2300,700,l),
(2400,600,l),
(2400,500,l)
);
},
{
attr = {
strokeWidth = 20;
};
closed = 0;
nodes = (
(1300,300,l),
(1400,400,l),
(1800,400,l)
);
}
);
width = 2400;
},
{
layerId = "FF452C49-E890-4906-B4E4-D49F40911E04";
shapes = (
{
attr = {
strokeWidth = 20;
};
closed = 0;
nodes = (
(100,500,l),
(0,400,l),
(0,300,l),
(0,200,l),
(100,0,l),
(700,0,l),
(800,100,l),
(800,600,l),
(900,700,l),
(1100,700,l),
(1200,600,l),
(1200,500,l)
);
},
{
attr = {
strokeWidth = 20;
};
closed = 0;
nodes = (
(500,300,l),
(600,400,l),
(1000,400,l)
);
}
);
width = 1200;
}
);
unicode = 115;
},
{
glyphname = t;
lastChange = "2024-03-08 08:03:25 +0000";
layers = (
{
layerId = m01;
shapes = (
{
attr = {
strokeWidth = 20;
};
closed = 0;
nodes = (
(100,550,l),
(150,650,l),
(200,700,l),
(350,700,l),
(350,500,l),
(100,0,l),
(0,0,l)
);
},
{
attr = {
strokeWidth = 20;
};
closed = 0;
nodes = (
(350,700,l),
(500,700,l)
);
}
);
width = 500;
},
{
layerId = "083202A8-D484-4071-ADF3-F9529F9E0EF2";
shapes = (
{
attr = {
strokeWidth = 20;
};
closed = 0;
nodes = (
(200,550,l),
(300,650,l),
(400,700,l),
(1200,700,l),
(1200,500,l),
(700,0,l),
(500,0,l)
);
},
{
attr = {
strokeWidth = 20;
};
closed = 0;
nodes = (
(1200,700,l),
(2000,700,l)
);
}
);
width = 2000;
},
{
layerId = "FF452C49-E890-4906-B4E4-D49F40911E04";
shapes = (
{
attr = {
strokeWidth = 20;
};
closed = 0;
nodes = (
(200,550,l),
(300,650,l),
(400,700,l),
(700,700,l),
(700,500,l),
(200,0,l),
(0,0,l)
);
},
{
attr = {
strokeWidth = 20;
};
closed = 0;
nodes = (
(700,700,l),
(1000,700,l)
);
}
);
width = 1000;
}
);
unicode = 116;
},
{
glyphname = u;
lastChange = "2024-03-08 08:03:27 +0000";
layers = (
{
layerId = m01;
shapes = (
{
attr = {
strokeWidth = 20;
};
closed = 0;
nodes = (
(325,150,l),
(325,50,l),
(375,0,l),
(500,0,l),
(600,200,l)
);
},
{
attr = {
strokeWidth = 20;
};
closed = 0;
nodes = (
(0,600,l),
(50,700,l),
(225,700,l),
(225,600,l),
(50,300,l),
(50,100,l),
(100,0,l),
(250,0,l),
(325,150,l),
(600,700,l)
);
}
);
width = 600;
},
{
layerId = "083202A8-D484-4071-ADF3-F9529F9E0EF2";
shapes = (
{
attr = {
strokeWidth = 20;
};
closed = 0;
nodes = (
(1850,150,l),
(1850,50,l),
(1950,0,l),
(2200,0,l),
(2400,200,l)
);
},
{
attr = {
strokeWidth = 20;
};
closed = 0;
nodes = (
(0,600,l),
(100,700,l),
(450,700,l),
(450,600,l),
(100,300,l),
(100,100,l),
(200,0,l),
(1700,0,l),
(1850,150,l),
(2400,700,l)
);
}
);
width = 2400;
},
{
layerId = "FF452C49-E890-4906-B4E4-D49F40911E04";
shapes = (
{
attr = {
strokeWidth = 20;
};
closed = 0;
nodes = (
(650,150,l),
(650,50,l),
(750,0,l),
(1000,0,l),
(1200,200,l)
);
},
{
attr = {
strokeWidth = 20;
};
closed = 0;
nodes = (
(0,600,l),
(100,700,l),
(450,700,l),
(450,600,l),
(100,300,l),
(100,100,l),
(200,0,l),
(500,0,l),
(650,150,l),
(1200,700,l)
);
}
);
width = 1200;
}
);
unicode = 117;
},
{
glyphname = v;
lastChange = "2024-03-08 08:03:28 +0000";
layers = (
{
layerId = m01;
shapes = (
{
attr = {
strokeWidth = 20;
};
closed = 0;
nodes = (
(150,700,l),
(200,700,l),
(250,600,l),
(250,400,l),
(25,0,l)
);
},
{
attr = {
strokeWidth = 20;
};
closed = 0;
nodes = (
(0,0,l),
(200,0,l),
(450,250,l),
(550,450,l),
(550,600,l),
(500,700,l),
(400,700,l)
);
}
);
width = 550;
},
{
layerId = "083202A8-D484-4071-ADF3-F9529F9E0EF2";
shapes = (
{
attr = {
strokeWidth = 20;
};
closed = 0;
nodes = (
(300,700,l),
(400,700,l),
(500,600,l),
(500,400,l),
(50,0,l)
);
},
{
attr = {
strokeWidth = 20;
};
closed = 0;
nodes = (
(0,0,l),
(800,0,l),
(2000,250,l),
(2200,450,l),
(2200,600,l),
(2100,700,l),
(1900,700,l)
);
}
);
width = 2200;
},
{
layerId = "FF452C49-E890-4906-B4E4-D49F40911E04";
shapes = (
{
attr = {
strokeWidth = 20;
};
closed = 0;
nodes = (
(300,700,l),
(400,700,l),
(500,600,l),
(500,400,l),
(50,0,l)
);
},
{
attr = {
strokeWidth = 20;
};
closed = 0;
nodes = (
(0,0,l),
(400,0,l),
(900,250,l),
(1100,450,l),
(1100,600,l),
(1000,700,l),
(800,700,l)
);
}
);
width = 1100;
}
);
unicode = 118;
},
{
glyphname = w;
lastChange = "2024-03-08 08:03:31 +0000";
layers = (
{
layerId = m01;
shapes = (
{
attr = {
strokeWidth = 20;
};
closed = 0;
nodes = (
(0,600,l),
(50,700,l),
(150,700,l),
(200,650,l),
(200,550,l),
(0,150,l),
(25,50,l),
(75,0,l),
(125,0,l),
(375,500,l),
(125,0,l),
(200,150,l),
(225,50,l),
(275,0,l),
(325,0,l),
(675,700,l),
(725,700,l)
);
}
);
width = 725;
},
{
layerId = "083202A8-D484-4071-ADF3-F9529F9E0EF2";
shapes = (
{
attr = {
strokeWidth = 20;
};
closed = 0;
nodes = (
(0,600,l),
(100,700,l),
(300,700,l),
(400,650,l),
(400,550,l),
(0,150,l),
(50,50,l),
(150,0,l),
(1000,0,l),
(1500,500,l),
(1000,0,l),
(1150,150,l),
(1200,50,l),
(1300,0,l),
(2150,0,l),
(2850,700,l),
(2950,700,l)
);
}
);
width = 2950;
},
{
layerId = "FF452C49-E890-4906-B4E4-D49F40911E04";
shapes = (
{
attr = {
strokeWidth = 20;
};
closed = 0;
nodes = (
(0,600,l),
(100,700,l),
(300,700,l),
(400,650,l),
(400,550,l),
(0,150,l),
(50,50,l),
(150,0,l),
(250,0,l),
(750,500,l),
(250,0,l),
(400,150,l),
(450,50,l),
(550,0,l),
(650,0,l),
(1350,700,l),
(1450,700,l)
);
}
);
width = 1450;
}
);
unicode = 119;
},
{
glyphname = x;
lastChange = "2024-03-08 08:03:34 +0000";
layers = (
{
layerId = m01;
shapes = (
{
attr = {
strokeWidth = 20;
};
closed = 0;
nodes = (
(0,204,l),
(0,102,l),
(50,0,l),
(150,0,l),
(500,700,l),
(600,700,l),
(650,600,l),
(650,500,l)
);
},
{
attr = {
strokeWidth = 20;
};
closed = 0;
nodes = (
(150,500,l),
(150,600,l),
(200,700,l),
(300,700,l),
(325,600,l),
(325,100,l),
(350,0,l),
(500,0,l)
);
}
);
width = 650;
},
{
layerId = "083202A8-D484-4071-ADF3-F9529F9E0EF2";
shapes = (
{
attr = {
strokeWidth = 20;
};
closed = 0;
nodes = (
(0,204,l),
(0,102,l),
(100,0,l),
(500,0,l),
(2100,700,l),
(2500,700,l),
(2600,600,l),
(2600,500,l)
);
},
{
attr = {
strokeWidth = 20;
};
closed = 0;
nodes = (
(300,500,l),
(300,600,l),
(400,700,l),
(1150,700,l),
(1200,600,l),
(1200,100,l),
(1250,0,l),
(2300,0,l)
);
}
);
width = 2600;
},
{
layerId = "FF452C49-E890-4906-B4E4-D49F40911E04";
shapes = (
{
attr = {
strokeWidth = 20;
};
closed = 0;
nodes = (
(0,204,l),
(0,102,l),
(100,0,l),
(300,0,l),
(1000,700,l),
(1200,700,l),
(1300,600,l),
(1300,500,l)
);
},
{
attr = {
strokeWidth = 20;
};
closed = 0;
nodes = (
(300,500,l),
(300,600,l),
(400,700,l),
(600,700,l),
(650,600,l),
(650,100,l),
(700,0,l),
(1000,0,l)
);
}
);
width = 1300;
}
);
unicode = 120;
},
{
glyphname = y;
lastChange = "2024-03-08 08:03:36 +0000";
layers = (
{
layerId = m01;
shapes = (
{
attr = {
strokeWidth = 20;
};
closed = 0;
nodes = (
(0,200,l),
(0,100,l),
(50,0,l),
(250,0,l),
(325,150,l),
(600,700,l)
);
},
{
attr = {
strokeWidth = 20;
};
closed = 0;
nodes = (
(150,700,l),
(275,700,l),
(275,600,l),
(225,500,l),
(225,400,l),
(275,300,l),
(400,300,l)
);
}
);
width = 600;
},
{
layerId = "083202A8-D484-4071-ADF3-F9529F9E0EF2";
shapes = (
{
attr = {
strokeWidth = 20;
};
closed = 0;
nodes = (
(0,200,l),
(0,100,l),
(100,0,l),
(1700,0,l),
(1850,150,l),
(2400,700,l)
);
},
{
attr = {
strokeWidth = 20;
};
closed = 0;
nodes = (
(300,700,l),
(550,700,l),
(550,600,l),
(450,500,l),
(450,400,l),
(550,300,l),
(2000,300,l)
);
}
);
width = 2400;
},
{
layerId = "FF452C49-E890-4906-B4E4-D49F40911E04";
shapes = (
{
attr = {
strokeWidth = 20;
};
closed = 0;
nodes = (
(0,200,l),
(0,100,l),
(100,0,l),
(500,0,l),
(650,150,l),
(1200,700,l)
);
},
{
attr = {
strokeWidth = 20;
};
closed = 0;
nodes = (
(300,700,l),
(550,700,l),
(550,600,l),
(450,500,l),
(450,400,l),
(550,300,l),
(800,300,l)
);
}
);
width = 1200;
}
);
unicode = 121;
},
{
glyphname = z;
lastChange = "2024-03-08 08:03:38 +0000";
layers = (
{
layerId = m01;
shapes = (
{
attr = {
strokeWidth = 20;
};
closed = 0;
nodes = (
(600,700,l),
(0,0,l)
);
},
{
attr = {
strokeWidth = 20;
};
closed = 0;
nodes = (
(150,600,l),
(200,700,l),
(450,700,l),
(500,600,l)
);
},
{
attr = {
strokeWidth = 20;
};
closed = 0;
nodes = (
(600,200,l),
(600,100,l),
(550,0,l),
(275,0,l),
(125,150,l)
);
}
);
width = 600;
},
{
layerId = "083202A8-D484-4071-ADF3-F9529F9E0EF2";
shapes = (
{
attr = {
strokeWidth = 20;
};
closed = 0;
nodes = (
(2400,700,l),
(0,0,l)
);
},
{
attr = {
strokeWidth = 20;
};
closed = 0;
nodes = (
(500,600,l),
(600,700,l),
(1950,700,l),
(2050,600,l)
);
},
{
attr = {
strokeWidth = 20;
};
closed = 0;
nodes = (
(2400,200,l),
(2400,100,l),
(2300,0,l),
(800,0,l),
(500,150,l)
);
}
);
width = 2400;
},
{
layerId = "FF452C49-E890-4906-B4E4-D49F40911E04";
shapes = (
{
attr = {
strokeWidth = 20;
};
closed = 0;
nodes = (
(1200,700,l),
(0,0,l)
);
},
{
attr = {
strokeWidth = 20;
};
closed = 0;
nodes = (
(300,600,l),
(400,700,l),
(900,700,l),
(1000,600,l)
);
},
{
attr = {
strokeWidth = 20;
};
closed = 0;
nodes = (
(1200,200,l),
(1200,100,l),
(1100,0,l),
(550,0,l),
(250,150,l)
);
}
);
width = 1200;
}
);
unicode = 122;
},
{
glyphname = zero;
lastChange = "2024-03-15 16:08:40 +0000";
layers = (
{
layerId = "FF452C49-E890-4906-B4E4-D49F40911E04";
shapes = (
{
attr = {
strokeWidth = 20;
};
closed = 1;
nodes = (
(300,0,l),
(400,50,l),
(500,100,l),
(600,200,l),
(700,300,l),
(700,400,l),
(700,600,l),
(600,700,l),
(400,700,l),
(300,650,l),
(200,600,l),
(100,500,l),
(0,400,l),
(0,300,l),
(0,100,l),
(100,0,l)
);
}
);
width = 700;
},
{
layerId = m01;
shapes = (
{
attr = {
strokeWidth = 20;
};
closed = 1;
nodes = (
(150,0,l),
(200,50,l),
(250,100,l),
(300,200,l),
(350,300,l),
(350,400,l),
(350,600,l),
(300,700,l),
(200,700,l),
(150,650,l),
(100,600,l),
(50,500,l),
(0,400,l),
(0,300,l),
(0,100,l),
(50,0,l)
);
}
);
width = 350;
},
{
layerId = "083202A8-D484-4071-ADF3-F9529F9E0EF2";
shapes = (
{
attr = {
strokeWidth = 20;
};
closed = 1;
nodes = (
(1000,0,l),
(1100,50,l),
(1200,100,l),
(1300,200,l),
(1400,300,l),
(1400,400,l),
(1400,600,l),
(1300,700,l),
(400,700,l),
(300,650,l),
(200,600,l),
(100,500,l),
(0,400,l),
(0,300,l),
(0,100,l),
(100,0,l)
);
}
);
width = 1400;
}
);
unicode = 48;
},
{
glyphname = one;
lastChange = "2024-03-15 16:23:45 +0000";
layers = (
{
layerId = "FF452C49-E890-4906-B4E4-D49F40911E04";
shapes = (
{
attr = {
strokeWidth = 20;
};
closed = 0;
nodes = (
(900,700,l),
(600,550,l),
(400,550,l)
);
},
{
attr = {
strokeWidth = 20;
};
closed = 0;
nodes = (
(450,0,l),
(0,0,l),
(200,0,l),
(900,700,l)
);
}
);
width = 900;
},
{
layerId = m01;
shapes = (
{
attr = {
strokeWidth = 20;
};
closed = 0;
nodes = (
(450,700,l),
(300,550,l),
(200,550,l)
);
},
{
attr = {
strokeWidth = 20;
};
closed = 0;
nodes = (
(225,0,l),
(0,0,l),
(100,0,l),
(450,700,l)
);
}
);
width = 450;
},
{
layerId = "083202A8-D484-4071-ADF3-F9529F9E0EF2";
shapes = (
{
attr = {
strokeWidth = 20;
};
closed = 0;
nodes = (
(1400,700,l),
(1100,550,l),
(900,550,l)
);
},
{
attr = {
strokeWidth = 20;
};
closed = 0;
nodes = (
(1400,0,l),
(0,0,l),
(700,0,l),
(1400,700,l)
);
}
);
width = 1400;
}
);
unicode = 49;
},
{
glyphname = two;
lastChange = "2024-03-15 16:34:55 +0000";
layers = (
{
layerId = "FF452C49-E890-4906-B4E4-D49F40911E04";
shapes = (
{
attr = {
strokeWidth = 20;
};
closed = 0;
nodes = (
(300,100,l),
(500,200,l),
(700,300,l),
(900,500,l),
(900,600,l),
(800,700,l),
(400,700,l),
(300,600,l),
(300,500,l)
);
},
{
attr = {
strokeWidth = 20;
};
closed = 0;
nodes = (
(1000,200,l),
(800,0,l),
(500,0,l),
(300,100,l),
(200,100,l),
(0,0,l)
);
}
);
width = 1000;
},
{
layerId = m01;
shapes = (
{
attr = {
strokeWidth = 20;
};
closed = 0;
nodes = (
(150,100,l),
(250,200,l),
(350,300,l),
(450,500,l),
(450,600,l),
(400,700,l),
(200,700,l),
(150,600,l),
(150,500,l)
);
},
{
attr = {
strokeWidth = 20;
};
closed = 0;
nodes = (
(500,200,l),
(400,0,l),
(250,0,l),
(150,100,l),
(100,100,l),
(0,0,l)
);
}
);
width = 500;
},
{
layerId = "083202A8-D484-4071-ADF3-F9529F9E0EF2";
shapes = (
{
attr = {
strokeWidth = 20;
};
closed = 0;
nodes = (
(1000,100,l),
(1200,200,l),
(1400,300,l),
(1600,500,l),
(1600,600,l),
(1500,700,l),
(500,700,l),
(400,600,l),
(400,500,l)
);
},
{
attr = {
strokeWidth = 20;
};
closed = 0;
nodes = (
(2000,200,l),
(1800,0,l),
(1200,0,l),
(1000,100,l),
(200,100,l),
(0,0,l)
);
}
);
width = 2000;
}
);
unicode = 50;
},
{
glyphname = three;
lastChange = "2024-03-15 23:30:49 +0000";
layers = (
{
layerId = "FF452C49-E890-4906-B4E4-D49F40911E04";
shapes = (
{
attr = {
strokeWidth = 20;
};
closed = 0;
nodes = (
(600,300,l),
(800,500,l),
(800,600,l),
(700,700,l),
(400,700,l),
(300,600,l),
(300,500,l)
);
},
{
attr = {
strokeWidth = 20;
};
closed = 0;
nodes = (
(100,400,l),
(0,300,l),
(0,100,l),
(100,0,l),
(500,0,l),
(600,100,l),
(600,300,l),
(400,300,l)
);
}
);
width = 800;
},
{
layerId = m01;
shapes = (
{
attr = {
strokeWidth = 20;
};
closed = 0;
nodes = (
(300,300,l),
(400,500,l),
(400,600,l),
(350,700,l),
(200,700,l),
(150,600,l),
(150,500,l)
);
},
{
attr = {
strokeWidth = 20;
};
closed = 0;
nodes = (
(50,400,l),
(0,300,l),
(0,100,l),
(50,0,l),
(250,0,l),
(300,100,l),
(300,300,l),
(200,300,l)
);
}
);
width = 400;
},
{
layerId = "083202A8-D484-4071-ADF3-F9529F9E0EF2";
shapes = (
{
attr = {
strokeWidth = 20;
};
closed = 0;
nodes = (
(1400,300,l),
(1600,500,l),
(1600,600,l),
(1500,700,l),
(400,700,l),
(300,600,l),
(300,500,l)
);
},
{
attr = {
strokeWidth = 20;
};
closed = 0;
nodes = (
(100,400,l),
(0,300,l),
(0,100,l),
(100,0,l),
(1300,0,l),
(1400,100,l),
(1400,300,l),
(1000,300,l)
);
}
);
width = 1600;
}
);
unicode = 51;
},
{
glyphname = four;
lastChange = "2024-03-15 23:48:38 +0000";
layers = (
{
layerId = "FF452C49-E890-4906-B4E4-D49F40911E04";
shapes = (
{
attr = {
strokeWidth = 20;
};
closed = 0;
nodes = (
(900,700,l),
(250,0,l)
);
},
{
attr = {
strokeWidth = 20;
};
closed = 0;
nodes = (
(900,400,l),
(800,300,l),
(0,300,l)
);
},
{
attr = {
strokeWidth = 20;
};
closed = 0;
nodes = (
(0,300,l),
(200,400,l),
(450,700,l)
);
}
);
width = 900;
},
{
layerId = m01;
shapes = (
{
attr = {
strokeWidth = 20;
};
closed = 0;
nodes = (
(450,700,l),
(125,0,l)
);
},
{
attr = {
strokeWidth = 20;
};
closed = 0;
nodes = (
(450,400,l),
(400,300,l),
(0,300,l)
);
},
{
attr = {
strokeWidth = 20;
};
closed = 0;
nodes = (
(0,300,l),
(100,400,l),
(225,700,l)
);
}
);
width = 450;
},
{
layerId = "083202A8-D484-4071-ADF3-F9529F9E0EF2";
shapes = (
{
attr = {
strokeWidth = 20;
};
closed = 0;
nodes = (
(1800,700,l),
(1150,0,l)
);
},
{
attr = {
strokeWidth = 20;
};
closed = 0;
nodes = (
(1800,400,l),
(1700,300,l),
(0,300,l)
);
},
{
attr = {
strokeWidth = 20;
};
closed = 0;
nodes = (
(0,300,l),
(200,400,l),
(450,700,l)
);
}
);
width = 1800;
}
);
unicode = 52;
},
{
glyphname = five;
lastChange = "2024-03-16 00:09:07 +0000";
layers = (
{
layerId = "FF452C49-E890-4906-B4E4-D49F40911E04";
shapes = (
{
attr = {
strokeWidth = 20;
};
closed = 0;
nodes = (
(1000,700,l),
(600,700,l),
(250,300,l)
);
},
{
attr = {
strokeWidth = 20;
};
closed = 0;
nodes = (
(100,400,l),
(0,300,l),
(0,100,l),
(100,0,l),
(600,0,l),
(700,100,l),
(700,300,l),
(250,300,l)
);
}
);
width = 1000;
},
{
layerId = m01;
shapes = (
{
attr = {
strokeWidth = 20;
};
closed = 0;
nodes = (
(500,700,l),
(300,700,l),
(125,300,l)
);
},
{
attr = {
strokeWidth = 20;
};
closed = 0;
nodes = (
(50,400,l),
(0,300,l),
(0,100,l),
(50,0,l),
(300,0,l),
(350,100,l),
(350,300,l),
(125,300,l)
);
}
);
width = 500;
},
{
layerId = "083202A8-D484-4071-ADF3-F9529F9E0EF2";
shapes = (
{
attr = {
strokeWidth = 20;
};
closed = 0;
nodes = (
(2000,700,l),
(600,700,l),
(250,300,l)
);
},
{
attr = {
strokeWidth = 20;
};
closed = 0;
nodes = (
(100,400,l),
(0,300,l),
(0,100,l),
(100,0,l),
(1300,0,l),
(1400,100,l),
(1400,300,l),
(250,300,l)
);
}
);
width = 2000;
}
);
unicode = 53;
},
{
glyphname = six;
lastChange = "2024-03-16 00:23:53 +0000";
layers = (
{
layerId = "FF452C49-E890-4906-B4E4-D49F40911E04";
shapes = (
{
attr = {
strokeWidth = 20;
};
closed = 0;
nodes = (
(100,300,l),
(700,300,l),
(700,100,l),
(601,0,l),
(101,0,l),
(0,100,l),
(0,200,l),
(400,650,l),
(500,700,l),
(800,700,l),
(900,600,l),
(900,500,l)
);
}
);
width = 900;
},
{
layerId = m01;
shapes = (
{
attr = {
strokeWidth = 20;
};
closed = 0;
nodes = (
(50,300,l),
(350,300,l),
(350,100,l),
(301,0,l),
(51,0,l),
(0,100,l),
(0,200,l),
(200,650,l),
(250,700,l),
(400,700,l),
(450,600,l),
(450,500,l)
);
}
);
width = 450;
},
{
layerId = "083202A8-D484-4071-ADF3-F9529F9E0EF2";
shapes = (
{
attr = {
strokeWidth = 20;
};
closed = 0;
nodes = (
(100,300,l),
(1801,300,l),
(1801,100,l),
(1701,0,l),
(101,0,l),
(0,100,l),
(0,200,l),
(400,650,l),
(500,700,l),
(1900,700,l),
(2000,600,l),
(2000,500,l)
);
}
);
width = 2000;
}
);
unicode = 54;
},
{
glyphname = seven;
lastChange = "2024-03-16 00:35:48 +0000";
layers = (
{
layerId = "FF452C49-E890-4906-B4E4-D49F40911E04";
shapes = (
{
attr = {
strokeWidth = 20;
};
closed = 0;
nodes = (
(800,700,l),
(100,700,l),
(0,600,l),
(0,500,l)
);
},
{
attr = {
strokeWidth = 20;
};
closed = 0;
nodes = (
(100,0,l),
(800,700,l)
);
},
{
attr = {
strokeWidth = 20;
};
closed = 0;
nodes = (
(100,300,l),
(800,300,l)
);
}
);
width = 800;
},
{
layerId = m01;
shapes = (
{
attr = {
strokeWidth = 20;
};
closed = 0;
nodes = (
(400,700,l),
(50,700,l),
(0,600,l),
(0,500,l)
);
},
{
attr = {
strokeWidth = 20;
};
closed = 0;
nodes = (
(50,0,l),
(400,700,l)
);
},
{
attr = {
strokeWidth = 20;
};
closed = 0;
nodes = (
(50,300,l),
(400,300,l)
);
}
);
width = 400;
},
{
layerId = "083202A8-D484-4071-ADF3-F9529F9E0EF2";
shapes = (
{
attr = {
strokeWidth = 20;
};
closed = 0;
nodes = (
(1600,700,l),
(100,700,l),
(0,600,l),
(0,500,l)
);
},
{
attr = {
strokeWidth = 20;
};
closed = 0;
nodes = (
(900,0,l),
(1600,700,l)
);
},
{
attr = {
strokeWidth = 20;
};
closed = 0;
nodes = (
(200,300,l),
(1600,300,l)
);
}
);
width = 1600;
}
);
unicode = 55;
},
{
glyphname = eight;
lastChange = "2024-03-16 00:53:26 +0000";
layers = (
{
layerId = "FF452C49-E890-4906-B4E4-D49F40911E04";
shapes = (
{
attr = {
strokeWidth = 20;
};
closed = 0;
nodes = (
(600,300,l),
(700,200,l),
(700,100,l),
(601,0,l),
(101,0,l),
(0,100,l),
(0,200,l),
(100,300,l),
(800,300,l),
(900,400,l),
(900,600,l),
(800,700,l),
(500,700,l),
(400,600,l),
(400,400,l),
(500,300,l)
);
}
);
width = 900;
},
{
layerId = m01;
shapes = (
{
attr = {
strokeWidth = 20;
};
closed = 0;
nodes = (
(300,300,l),
(350,200,l),
(350,100,l),
(301,0,l),
(51,0,l),
(0,100,l),
(0,200,l),
(50,300,l),
(400,300,l),
(450,400,l),
(450,600,l),
(400,700,l),
(250,700,l),
(200,600,l),
(200,400,l),
(250,300,l)
);
}
);
width = 450;
},
{
layerId = "083202A8-D484-4071-ADF3-F9529F9E0EF2";
shapes = (
{
attr = {
strokeWidth = 20;
};
closed = 0;
nodes = (
(1500,300,l),
(1600,200,l),
(1600,100,l),
(1501,0,l),
(101,0,l),
(0,100,l),
(0,200,l),
(100,300,l),
(1700,300,l),
(1800,400,l),
(1800,600,l),
(1700,700,l),
(500,700,l),
(400,600,l),
(400,400,l),
(500,300,l)
);
}
);
width = 1800;
}
);
unicode = 56;
},
{
glyphname = nine;
lastChange = "2024-03-16 01:03:34 +0000";
layers = (
{
layerId = "FF452C49-E890-4906-B4E4-D49F40911E04";
shapes = (
{
attr = {
strokeWidth = 20;
};
closed = 0;
nodes = (
(800,300,l),
(300,300,l),
(300,600,l),
(450,700,l),
(800,700,l),
(900,600,l),
(900,400,l),
(500,0,l),
(101,0,l),
(0,100,l),
(0,200,l),
(100,300,l)
);
}
);
width = 900;
},
{
layerId = m01;
shapes = (
{
attr = {
strokeWidth = 20;
};
closed = 0;
nodes = (
(400,300,l),
(150,300,l),
(150,600,l),
(225,700,l),
(400,700,l),
(450,600,l),
(450,400,l),
(250,0,l),
(51,0,l),
(0,100,l),
(0,200,l),
(50,300,l)
);
}
);
width = 450;
},
{
layerId = "083202A8-D484-4071-ADF3-F9529F9E0EF2";
shapes = (
{
attr = {
strokeWidth = 20;
};
closed = 0;
nodes = (
(1700,300,l),
(300,300,l),
(300,600,l),
(450,700,l),
(1700,700,l),
(1800,600,l),
(1800,400,l),
(1400,0,l),
(101,0,l),
(0,100,l),
(0,200,l),
(100,300,l)
);
}
);
width = 1800;
}
);
unicode = 57;
},
